<?xml version="1.0" standalone="no"?>
<!DOCTYPE svg PUBLIC "-//W3C//DTD SVG 1.1//EN" "http://www.w3.org/Graphics/SVG/1.1/DTD/svg11.dtd" >
<svg xmlns="http://www.w3.org/2000/svg">
<metadata>
This is a custom SVG webfont generated by Font Squirrel.
Copyright   : Copyright 19902003 Bitstream Inc All rights reserved
</metadata>
<defs>
<font id="webfontsf5vCN4C" horiz-adv-x="1071" >
<font-face units-per-em="2048" ascent="1556" descent="-492" />
<missing-glyph horiz-adv-x="537" />
<glyph unicode=" "  horiz-adv-x="537" />
<glyph unicode="&#x09;" horiz-adv-x="537" />
<glyph unicode="&#xa0;" horiz-adv-x="537" />
<glyph unicode="!" horiz-adv-x="537" d="M238 266q-13 218 -30.5 455.5t-47.5 591.5l221 -1q-9 -84 -28 -365.5t-42 -684.5zM137 80l133 129l138 -103l-134 -131z" />
<glyph unicode="&#x22;" horiz-adv-x="590" d="M496 1434v-553h-119v553h119zM211 1434v-553h-117v553h117z" />
<glyph unicode="#" horiz-adv-x="1575" d="M973 862h-264l-95 -272h263zM922 1456l-166 -471h260l168 471h143l-164 -471h307l-43 -123h-311l-94 -272h330l-43 -123h-332l-166 -469h-145l168 469h-265l-168 -469h-143l166 469h-320l43 123h320l96 272h-342l43 123h344l168 471h146z" />
<glyph unicode="$" d="M563 600v-510q87 28 133.5 94.5t46.5 161.5q0 84 -42 144t-138 110zM479 797v430q-74 -22 -115.5 -76.5t-41.5 -130.5q0 -72 39 -127.5t118 -95.5zM825 1276l-8 -121q-41 40 -98.5 61t-124.5 21h-31v-473q180 -74 267.5 -168t87.5 -213q0 -134 -100 -240t-255 -133v-180 h-84v170q-97 6 -179.5 24.5t-147.5 49.5v133q51 -64 133.5 -97t193.5 -34v555q-167 68 -245 153t-78 199q0 124 88 212.5t235 111.5v153h84v-149q75 0 140.5 -9t121.5 -26z" />
<glyph unicode="%" horiz-adv-x="1255" d="M805 317q0 -138 30.5 -204t94.5 -66t95.5 69t31.5 210q0 134 -31 204t-90 70q-62 0 -96.5 -74t-34.5 -209zM909 -25q-119 0 -176 80t-57 246q0 189 66 279t204 90q121 0 178.5 -80.5t57.5 -247.5q0 -193 -65 -280t-208 -87zM201 985q0 -138 30.5 -204t94.5 -66t95.5 69 t31.5 209q0 134 -31 204.5t-90 70.5q-63 0 -97 -74t-34 -209zM305 643q-118 0 -174.5 79.5t-56.5 246.5q0 190 65 279t203 89q120 0 178 -80t58 -247q0 -193 -65 -280t-208 -87zM96 0l944 1313h117l-944 -1313h-117z" />
<glyph unicode="&#x26;" horiz-adv-x="1251" d="M518 850q77 56 112.5 113.5t35.5 126.5q0 75 -39.5 122.5t-100.5 47.5t-100 -39t-39 -99q0 -46 28.5 -106.5t102.5 -165.5zM770 217l-348 471q-88 -66 -131 -141.5t-43 -163.5q0 -125 74.5 -202t197.5 -77q66 0 126.5 27.5t123.5 85.5zM930 0l-113 152 q-86 -89 -178.5 -133t-189.5 -44q-165 0 -269 92t-104 236q0 120 72.5 228t226.5 219q-77 97 -115.5 175.5t-38.5 139.5q0 115 93.5 193.5t234.5 78.5q123 0 201.5 -61.5t78.5 -157.5q0 -75 -63 -152t-205 -173l324 -451q55 66 83.5 129.5t28.5 116.5q0 22 -4.5 39t-13.5 30 h211q-37 -45 -116.5 -170.5t-135.5 -195.5l149 -182q22 -28 49 -55.5t58 -53.5h-264z" />
<glyph unicode="'" horiz-adv-x="305" d="M211 1434v-553h-117v553h117z" />
<glyph unicode="(" horiz-adv-x="541" d="M498 -336q-178 129 -274.5 364t-96.5 539q0 306 101.5 529t287.5 325q-113 -193 -166 -392.5t-53 -432.5q0 -238 49.5 -469t151.5 -463z" />
<glyph unicode=")" horiz-adv-x="541" d="M43 1421q179 -128 275 -362t96 -541q0 -306 -102 -529t-287 -325q113 193 166 392.5t53 432.5q0 238 -50 469t-151 463z" />
<glyph unicode="*" horiz-adv-x="1024" d="M340 537l-129 96l235 256l-337 72l47 149l315 -143l-29 346h140l-29 -346l315 143l47 -149l-337 -72l235 -256l-129 -96l-172 303z" />
<glyph unicode="+" horiz-adv-x="1706" d="M913 1221v-551h539v-117h-539v-553h-118v553h-541v117h541v551h118z" />
<glyph unicode="," horiz-adv-x="537" d="M319 184q24 -52 36 -92.5t12 -71.5q0 -61 -47 -116t-170 -131q26 43 38.5 83.5t12.5 82.5q0 39 -12 79.5t-37 85.5z" />
<glyph unicode="-" horiz-adv-x="678" d="M62 412l90 116h464l-88 -122h-432q-15 0 -22.5 1.5t-11.5 4.5z" />
<glyph unicode="." horiz-adv-x="537" d="M246 -25l-113 134l166 100l104 -131z" />
<glyph unicode="/" horiz-adv-x="569" d="M-49 -190l557 1527h110l-557 -1527h-110z" />
<glyph unicode="0" d="M258 606q0 -275 69 -413t208 -138t209.5 146.5t70.5 433.5q0 317 -64.5 471t-197.5 154q-145 0 -220 -166t-75 -488zM504 -25q-221 0 -325.5 155t-104.5 484q0 379 118 551t375 172q225 0 327.5 -160t102.5 -513q0 -352 -120.5 -520.5t-372.5 -168.5z" />
<glyph unicode="1" d="M403 0q30 29 42 146t12 507v88v113q0 246 -12 323t-42 101l229 59q-7 -237 -11.5 -424t-4.5 -256q0 -405 12 -516t42 -141h-267z" />
<glyph unicode="2" d="M80 0l309 385q161 201 233 339.5t72 244.5q0 116 -67.5 183t-186.5 67q-72 0 -146.5 -31t-146.5 -90v14q0 101 101.5 163t265.5 62q162 0 258 -86t96 -231q0 -99 -49.5 -205.5t-150.5 -224.5l-396 -467l441 8q66 0 106 9.5t76 29.5q0 -4 -1 -12t-1 -13q0 -14 -9.5 -55.5 t-25.5 -89.5h-778z" />
<glyph unicode="3" d="M336 737q149 47 226 122t77 171q0 95 -57.5 148t-159.5 53q-54 0 -108.5 -18.5t-104.5 -53.5q0 92 75.5 135t235.5 43q131 0 212 -70t81 -182q0 -122 -71 -205t-218 -130q178 -59 264 -155t86 -237q0 -159 -122 -271t-301 -112q-156 0 -239 52t-85 151 q56 -47 122.5 -71.5t137.5 -24.5q138 0 220.5 81t82.5 214q0 134 -91.5 227.5t-262.5 132.5z" />
<glyph unicode="4" d="M637 559l8 594l-446 -594h438zM797 395q0 -218 9.5 -296t33.5 -99h-248q24 21 33.5 99t9.5 296v66h-602l387 519l291 357h86v-778h47q36 0 81 2t95 6q-21 -53 -65.5 -75.5t-157.5 -28.5v-68z" />
<glyph unicode="5" d="M307 1312q72 -2 148.5 -3.5t156.5 -1.5q117 0 187.5 7.5t95.5 22.5q-2 -29 -12.5 -64t-30.5 -77q-38 -9 -96 -12.5t-170 -3.5q-94 0 -138 1.5t-79 4.5l-43 -248q269 -128 394.5 -262.5t125.5 -292.5q0 -172 -116.5 -290t-289.5 -118q-150 0 -224 56t-78 173 q61 -54 127 -81t136 -27q115 0 188 81.5t73 209.5q0 134 -106 243t-333 208z" />
<glyph unicode="6" d="M532 51q110 0 174 98.5t64 266.5q0 137 -56.5 213t-158.5 76q-118 0 -183 -78.5t-65 -220.5q0 -167 60 -261t165 -94zM307 641q41 71 122.5 111.5t184.5 40.5q160 0 250 -93t90 -258q0 -202 -120.5 -334.5t-303.5 -132.5q-185 0 -299 146t-114 385q0 383 161 607t435 224 q43 0 81 -4t72 -12q-276 -49 -406 -206t-153 -474z" />
<glyph unicode="7" d="M1026 1313l-22 -37q-74 -121 -95 -160l-403 -698q-143 -249 -226 -344t-157 -107q94 150 255 457l380 758h-164q-184 0 -291 -10.5t-149 -32.5q1 57 7 99t18 77q69 -5 161 -7t227 -3q129 0 242.5 2t216.5 6z" />
<glyph unicode="8" d="M586 799q65 37 101 108.5t36 163.5q0 86 -47 140.5t-119 54.5q-78 0 -128 -53.5t-50 -137.5q0 -80 49 -145.5t158 -130.5zM504 680q-117 -73 -177.5 -165.5t-60.5 -201.5q0 -114 74 -189t190 -75t188.5 74.5t72.5 189.5q0 112 -67 197.5t-220 169.5zM432 717 q-109 62 -167 144.5t-58 174.5q0 141 99 221t276 80q146 0 227.5 -60.5t81.5 -168.5q0 -105 -60.5 -190t-183.5 -152q180 -110 252 -208t72 -226q0 -163 -121 -260t-326 -97q-191 0 -307.5 87.5t-116.5 226.5q0 118 81 222.5t251 205.5z" />
<glyph unicode="9" d="M70 -39q84 25 163 72t150 114q174 167 268 371.5t94 413.5q0 161 -55 245.5t-160 84.5q-100 0 -160.5 -75.5t-60.5 -203.5q0 -144 79 -227.5t216 -83.5h4q-23 -26 -66.5 -40t-99.5 -14q-134 0 -223.5 96t-89.5 242q0 171 118 276t312 105q182 0 276.5 -100t94.5 -293 q0 -182 -75.5 -379.5t-203.5 -347.5q-97 -114 -240 -187t-261 -73q-30 0 -47 1t-33 3z" />
<glyph unicode=":" horiz-adv-x="537" d="M246 -25l-113 134l166 100l104 -131zM246 707l-113 133l166 98l104 -131z" />
<glyph unicode=";" horiz-adv-x="537" d="M319 184q24 -52 36 -92.5t12 -71.5q0 -61 -47 -116t-170 -131q26 43 38.5 83.5t12.5 82.5q0 39 -12 79.5t-37 85.5zM246 707l-113 133l166 98l104 -131z" />
<glyph unicode="&#x3c;" horiz-adv-x="1706" d="M1442 1018l-1000 -408l1000 -405v-129l-1178 483v103l1178 483v-127z" />
<glyph unicode="=" horiz-adv-x="1706" d="M1452 477v-117h-1198v117h1198zM1452 860v-117h-1198v117h1198z" />
<glyph unicode="&#x3e;" horiz-adv-x="1706" d="M1442 662v-103l-1178 -483v129l1000 405l-1000 408v127z" />
<glyph unicode="?" horiz-adv-x="721" d="M250 240q-9 31 -14 66t-5 71q0 147 114 297l22 29q84 116 108.5 178.5t24.5 128.5q0 93 -59.5 154t-151.5 61q-61 0 -116 -21.5t-97 -60.5l12 110q49 41 118.5 62.5t147.5 21.5q144 0 231 -81t87 -214q0 -180 -180 -397q-40 -48 -60 -74q-70 -89 -113 -168.5t-69 -162.5z M127 57l131 142l150 -82l-121 -142z" />
<glyph unicode="@" horiz-adv-x="2048" d="M1292 844l58 121h110l-141 -568q-6 -24 -9 -44t-3 -36q0 -44 27.5 -67t82.5 -23q45 0 100 24t103 64q89 76 139.5 196.5t50.5 254.5q0 266 -195.5 428t-518.5 162q-168 0 -312.5 -52t-259.5 -153q-140 -122 -211 -282.5t-71 -354.5q0 -173 60.5 -304t186.5 -230 q101 -81 240 -124.5t295 -43.5q172 0 334.5 48.5t296.5 139.5l45 -66q-147 -109 -313 -165t-347 -56q-191 0 -348 46.5t-276 138.5q-153 117 -228 272t-75 352q0 163 50.5 309t149.5 269q146 176 349.5 267t453.5 91q165 0 311 -43.5t248 -124.5q129 -99 195.5 -230 t66.5 -282q0 -169 -62.5 -308.5t-182.5 -236.5q-69 -55 -148.5 -83.5t-163.5 -28.5q-99 0 -148.5 39t-49.5 116q0 3 1 11t1 12q-51 -87 -127 -132.5t-170 -45.5q-153 0 -233.5 85t-80.5 247q0 230 137 389t332 159q91 0 153.5 -39.5t96.5 -117.5zM1202 473l60 242 q-17 90 -72 140t-135 50q-146 0 -244 -131.5t-98 -327.5q0 -110 51 -169.5t145 -59.5q102 0 183.5 70.5t109.5 185.5z" />
<glyph unicode="A" horiz-adv-x="1241" d="M393 645h414l-193 529zM-63 0q93 112 187 281t198 413q87 203 143.5 363t56.5 192q0 16 -4 31.5t-12 32.5h254q149 -496 281 -837t227 -476h-224l-206 569h-478l-88 -215l-2 -5q-82 -197 -82 -286q0 -14 2.5 -29.5t7.5 -33.5h-261z" />
<glyph unicode="B" horiz-adv-x="1100" d="M346 807v-49h55q184 0 281.5 72t97.5 206q0 102 -74.5 153.5t-222.5 51.5q-27 0 -56.5 -1.5t-61.5 -4.5q-10 -43 -14.5 -138t-4.5 -272v-18zM346 682v-252q0 -112 5 -200.5t12 -113.5t50 -39t113 -14q145 0 225 82t80 230q0 146 -92.5 226.5t-263.5 80.5h-129zM258 0 h-139q28 30 39.5 138t11.5 462v84q0 386 -11.5 492.5t-39.5 136.5h172q67 0 190.5 7t180.5 7q150 0 232.5 -65t82.5 -183q0 -111 -80.5 -195.5t-237.5 -138.5q183 -21 283 -113.5t100 -240.5q0 -180 -135.5 -291.5t-361.5 -111.5q-55 0 -150.5 6t-136.5 6z" />
<glyph unicode="C" horiz-adv-x="1214" d="M1077 1313l-12 -281q-44 107 -123 161t-192 54q-220 0 -345.5 -145t-125.5 -400q0 -263 137.5 -419t367.5 -156q109 0 203.5 42t163.5 120q-36 -143 -161.5 -228.5t-301.5 -85.5q-268 0 -440 187t-172 481q0 325 185 509.5t511 184.5q51 0 152.5 -12t152.5 -12z" />
<glyph unicode="D" horiz-adv-x="1403" d="M362 1229q-8 -47 -12 -147.5t-4 -274.5v-299q0 -132 2.5 -221.5t7.5 -124.5q8 -51 55.5 -68.5t182.5 -17.5q250 0 387 150.5t137 424.5q0 287 -144 442.5t-409 155.5q-55 0 -105 -5t-98 -15zM119 0q28 30 39.5 138t11.5 462v84q0 386 -11.5 492.5t-39.5 136.5h149 q90 0 241 12t214 12q282 0 443 -165.5t161 -454.5q0 -336 -193 -531.5t-524 -195.5q-73 0 -190.5 5t-161.5 5h-139z" />
<glyph unicode="E" horiz-adv-x="1014" d="M119 0q28 30 39.5 138t11.5 462v84q0 386 -11.5 492.5t-39.5 136.5h127q136 0 308.5 3t209.5 3q2 0 12 -1q31 -1 60 -1l16 -193q-24 63 -96.5 88t-276.5 25h-114q-10 -43 -14.5 -142.5t-4.5 -287.5v-68q25 -2 57 -3t103 -1q121 0 203 5.5t147 17.5q-56 -65 -148.5 -92 t-308.5 -27q-5 0 -22.5 1t-30.5 1v-133q0 -188 4.5 -288.5t14.5 -143.5h118q203 0 305 32.5t158 108.5l-35 -205q-41 -8 -93.5 -12t-110.5 -4q-47 0 -186.5 2t-233.5 2h-168z" />
<glyph unicode="F" horiz-adv-x="901" d="M346 709q63 -4 114 -5.5t93 -1.5q78 0 148.5 6.5t138.5 18.5q-42 -66 -123.5 -92.5t-294.5 -26.5h-76v-100q0 -301 11.5 -388.5t39.5 -119.5h-278q28 30 39.5 138t11.5 462v84q0 386 -11.5 492.5t-39.5 136.5h141q42 0 168 3t211 3q68 0 123 -3t98 -9l8 -170 q-30 56 -106.5 79t-245.5 23q-38 0 -75 -1.5t-76 -4.5q-10 -46 -14.5 -144.5t-4.5 -281.5v-98z" />
<glyph unicode="G" horiz-adv-x="1374" d="M989 659h275q-26 -36 -36.5 -111.5t-10.5 -262.5q0 -124 5 -182t17 -93q-107 -6 -263.5 -20.5t-203.5 -14.5q-337 0 -516.5 167t-179.5 479q0 331 219.5 523.5t599.5 192.5q68 0 149 -6t170 -18v-240q-75 85 -174.5 127.5t-222.5 42.5q-244 0 -386 -158.5t-142 -431.5 q0 -272 154.5 -424.5t428.5 -152.5q45 0 81.5 4t70.5 12q8 52 12 111t4 131q0 140 -12 216.5t-39 108.5z" />
<glyph unicode="H" horiz-adv-x="1305" d="M958 739v68q0 288 -11.5 380t-41.5 126h281q-29 -29 -40 -133t-11 -443v-80v-79q0 -340 11 -444.5t40 -133.5h-281q30 35 41.5 133t11.5 375v156h-612v-156q0 -301 11.5 -388.5t39.5 -119.5h-278q28 30 39.5 138t11.5 462v84q0 386 -11.5 492.5t-39.5 136.5h278 q-28 -32 -39.5 -119t-11.5 -387v-68h612z" />
<glyph unicode="I" horiz-adv-x="516" d="M119 0q28 30 39.5 138t11.5 462v84q0 386 -11.5 492.5t-39.5 136.5h278q-28 -29 -39.5 -133t-11.5 -443v-80v-79q0 -340 11.5 -444.5t39.5 -133.5h-278z" />
<glyph unicode="J" horiz-adv-x="516" d="M119 1313h278q-28 -28 -39.5 -140t-11.5 -446v-244q0 -466 -55.5 -606.5t-198.5 -189.5l-2 6q44 97 62 277.5t18 713.5q0 386 -11.5 492.5t-39.5 136.5z" />
<glyph unicode="K" d="M346 719q40 4 89 39.5t124 115.5q182 196 241.5 277.5t59.5 124.5v10q0 11 -1.5 16.5t-3.5 10.5h271q-66 -42 -224.5 -200.5t-371.5 -395.5l330 -467l28 -40q110 -157 179 -210h-203q-31 0 -49 9t-33 30l-395 610h-41v-141q0 -301 11.5 -388.5t39.5 -119.5h-278 q28 30 39.5 138t11.5 462v84q0 386 -11.5 492.5t-39.5 136.5h278q-28 -32 -39.5 -119t-11.5 -387v-88z" />
<glyph unicode="L" horiz-adv-x="901" d="M119 1313h278q-28 -30 -39.5 -138t-11.5 -460v-84q0 -220 5 -367t14 -188q20 -1 42.5 -1.5t65.5 -0.5q160 0 246.5 32.5t140.5 110.5l-45 -205q-42 -8 -94 -12t-111 -4q-46 0 -186 2t-234 2h-71q28 30 39.5 138t11.5 462v84q0 386 -11.5 492.5t-39.5 136.5z" />
<glyph unicode="M" horiz-adv-x="1587" d="M733 -29l-473 1219l-4 -895v-64q0 -93 11 -143t36 -88h-233q58 51 84 326.5t26 842.5q0 52 -11.5 84t-39.5 60h229q28 0 37 -7.5t17 -29.5l370 -989l412 979q11 28 24.5 37.5t43.5 9.5h200q-26 -34 -37.5 -107.5t-11.5 -212.5q0 -514 21.5 -719.5t74.5 -273.5h-301 q29 44 41.5 109.5t12.5 187.5q0 1 -1 13l-4 164l-12 716z" />
<glyph unicode="N" horiz-adv-x="1356" d="M258 1157l6 -661q2 -238 17.5 -340.5t50.5 -155.5h-238q40 51 58 236.5t18 541.5q0 315 -16.5 409.5t-59.5 125.5h213q58 0 129 -108l29 -44l179 -269q280 -427 450 -659l2 574q0 276 -12 373.5t-42 132.5h195q-30 -28 -41.5 -149.5t-11.5 -491.5v-262v-416h-133 q-68 108 -339 500z" />
<glyph unicode="O" horiz-adv-x="1421" d="M741 74q187 0 293.5 144.5t106.5 402.5q0 291 -114 457.5t-312 166.5q-204 0 -318 -147t-114 -412q0 -290 120.5 -451t337.5 -161zM678 -25q-289 0 -445.5 170.5t-156.5 485.5q0 343 170 524.5t491 181.5q303 0 456 -161.5t153 -481.5q0 -327 -182 -523t-486 -196z" />
<glyph unicode="P" horiz-adv-x="1014" d="M119 0q28 30 39.5 138t11.5 462v84q0 386 -11.5 492.5t-39.5 136.5h65q91 0 226.5 9t181.5 9q190 0 287.5 -89t97.5 -263q0 -180 -106 -294t-273 -114q-60 0 -111.5 11.5t-93.5 33.5h21q167 0 261.5 94t94.5 261q0 141 -66 209.5t-202 68.5q-39 0 -73 -2.5t-64 -7.5 q-10 -43 -14.5 -196t-4.5 -414q0 -387 11.5 -493t39.5 -136h-278z" />
<glyph unicode="Q" horiz-adv-x="1384" d="M797 27q160 -83 317.5 -128.5t280.5 -45.5q20 0 43 1.5t46 3.5q-51 -53 -125.5 -81.5t-162.5 -28.5q-145 0 -325.5 70t-360.5 196q-211 30 -322.5 188t-111.5 429q0 342 170.5 524t490.5 182q275 0 421.5 -161.5t146.5 -464.5q0 -277 -136 -460t-372 -224zM283 670 q0 -257 119.5 -409t318.5 -152q179 0 280 140t101 390q0 269 -110 437.5t-281 168.5q-204 0 -316 -150t-112 -425z" />
<glyph unicode="R" horiz-adv-x="1081" d="M178 1313q120 0 268 7t177 7q155 0 235 -66.5t80 -195.5q0 -126 -79 -224.5t-232 -162.5l293 -408q73 -101 134.5 -168.5t110.5 -101.5h-194q-39 0 -59.5 10.5t-43.5 42.5l-350 492q-38 54 -71 71t-85 17h-16v-125q0 -301 11.5 -388.5t39.5 -119.5h-278q28 30 39.5 138 t11.5 462v84q0 386 -11.5 492.5t-39.5 136.5h59zM346 713q18 -4 39 -6t47 -2q149 0 229 78t80 223q0 121 -61 180t-186 59q-49 0 -76.5 -1.5t-52.5 -4.5q-10 -44 -14.5 -139.5t-4.5 -270.5v-22v-94z" />
<glyph unicode="S" horiz-adv-x="985" d="M59 53v223q61 -101 155.5 -154.5t213.5 -53.5t193.5 70t74.5 179q0 85 -50 150t-169 129l-27 15q-346 189 -346 384q0 151 118 246.5t308 95.5q61 0 133.5 -4t84.5 -4q4 0 16.5 -1t21.5 -1h52v-213q-39 65 -108.5 99t-162.5 34q-128 0 -202 -56t-74 -151q0 -141 271 -284 l13 -6q170 -90 243 -178t73 -199q0 -165 -135.5 -281.5t-333.5 -116.5q-79 0 -168 19t-195 59z" />
<glyph unicode="T" horiz-adv-x="1114" d="M416 0q28 30 39.5 134t11.5 444v79q0 166 -3 295.5t-9 249.5h-217q-72 0 -117 -12t-86 -39l49 162h1040q-35 -56 -86 -80.5t-135 -24.5l-249 -2q-6 -136 -8.5 -277.5t-2.5 -299.5q0 -387 11.5 -493t39.5 -136h-278z" />
<glyph unicode="U" horiz-adv-x="1346" d="M1004 0l6 193q-64 -105 -174 -161.5t-250 -56.5q-217 0 -317.5 105.5t-100.5 333.5q0 61 1 142.5t1 100.5q0 404 -11.5 514.5t-39.5 141.5h278q-30 -28 -41.5 -154.5t-11.5 -556.5q0 -315 71 -415.5t249 -100.5q182 0 258.5 125t76.5 446q0 405 -11 515.5t-40 140.5h281 q-30 -30 -41.5 -140.5t-11.5 -515.5t11.5 -516t41.5 -141h-225z" />
<glyph unicode="V" horiz-adv-x="1128" d="M442 -10q-126 478 -249 830t-211 493h149q51 0 65 -10.5t29 -51.5q27 -64 52.5 -139.5t60.5 -189.5l240 -766l223 559q63 160 101 302.5t38 207.5q0 18 -3.5 40t-10.5 47l260 1q-144 -204 -432 -950l-146 -373h-166z" />
<glyph unicode="W" horiz-adv-x="1655" d="M1114 -10q-9 63 -25 131.5t-45 167.5l-229 811q-62 -249 -181 -616.5t-151 -493.5h-176q-64 511 -152 887.5t-147 435.5h131q70 0 91.5 -27.5t48.5 -152.5q80 -396 160 -962l1 -11l199 600q41 124 64.5 233.5t23.5 169.5q0 40 -13.5 78t-39.5 72h350q-24 -34 -35.5 -65 t-11.5 -62q0 -21 6.5 -56.5t17.5 -78.5l238 -891l143 579q38 149 58 261.5t20 166.5q0 48 -9 82t-30 64h271q-73 -79 -152.5 -324.5t-255.5 -998.5h-170z" />
<glyph unicode="X" horiz-adv-x="1214" d="M-6 0q70 53 144 130.5t143 168.5l247 330l-229 348q-118 180 -176 249.5t-100 86.5h219q37 0 59 -16t68 -89l268 -434l143 199q67 93 96 156t29 114q0 19 -4.5 36t-13.5 34h268q-96 -101 -264 -335l-29 -40l-176 -242l379 -542q41 -60 76 -94.5t78 -59.5h-195 q-53 0 -81.5 16t-61.5 68l-301 473l-136 -191l-43 -61q-129 -180 -129 -235q0 -23 7 -40t22 -30h-307z" />
<glyph unicode="Y" horiz-adv-x="995" d="M336 0q26 47 39.5 124t13.5 183q0 191 -52 361.5t-185 400.5q-50 86 -97 149t-84 95h70h96q63 0 95 -24.5t69 -100.5q58 -120 108 -249.5t107 -305.5l174 319l13 24q102 191 102 251q0 23 -9.5 44.5t-27.5 41.5h262l-242 -369q-94 -149 -137 -231q-47 -94 -67.5 -194.5 t-20.5 -309.5q0 -60 10 -111.5t31 -97.5h-268z" />
<glyph unicode="Z" horiz-adv-x="1270" d="M0 0l606 792q180 245 305 437h-293q-257 0 -356 -24.5t-158 -84.5l29 197q20 -2 42 -3t61 -1h75h537q217 0 275.5 1t69.5 3l-47 -63q-638 -827 -861 -1168q210 -6 290 -8t123 -2q253 0 356.5 33.5t164.5 115.5l-39 -225h-1180z" />
<glyph unicode="[" horiz-adv-x="541" d="M199 1421h284q-83 -38 -115 -113.5t-32 -312.5v-905q0 -237 32 -312.5t115 -113.5h-284v1757z" />
<glyph unicode="\" horiz-adv-x="569" d="M508 -190l-557 1527h110l557 -1527h-110z" />
<glyph unicode="]" horiz-adv-x="541" d="M342 -336h-285q84 38 116 113.5t32 312.5v905q0 237 -32 312.5t-116 113.5h285v-1757z" />
<glyph unicode="^" horiz-adv-x="2048" d="M1104 1458l520 -557h-158l-442 438l-442 -438h-160l520 557h162z" />
<glyph unicode="_" horiz-adv-x="1024" d="M1024 -365v-118h-1024v118h1024z" />
<glyph unicode="`" horiz-adv-x="1024" d="M262 1399h178q36 -83 88.5 -171.5t120.5 -178.5q-115 25 -210 111t-177 239z" />
<glyph unicode="a" horiz-adv-x="829" d="M555 492q-230 -92 -288 -142.5t-58 -120.5q0 -59 44 -96t116 -37q95 0 140.5 61.5t45.5 190.5v144zM586 -12q-12 32 -18.5 72t-8.5 87q-40 -83 -107 -127.5t-153 -44.5q-106 0 -182 64.5t-76 150.5q0 80 63 139t275 152q126 56 154 91t28 114q0 97 -41.5 141.5 t-130.5 44.5q-41 0 -73.5 -14t-51.5 -41q-8 -12 -22 -44q-38 -91 -99 -91q-33 0 -54 21t-21 55q0 79 106 129.5t283 50.5q135 0 194.5 -45.5t59.5 -151.5q0 -17 -5.5 -149.5t-5.5 -249.5q0 -150 17.5 -235.5t52.5 -106.5z" />
<glyph unicode="b" horiz-adv-x="967" d="M483 49q121 0 189.5 104t68.5 287q0 175 -66.5 278t-178.5 103q-118 0 -172 -94.5t-54 -302.5q0 -213 48.5 -294t164.5 -81zM111 -8q8 98 13 230.5t5 281.5q0 542 -15.5 705t-56.5 190l215 37v-682q49 85 132.5 134.5t177.5 49.5q146 0 234.5 -123.5t88.5 -329.5 q0 -240 -114.5 -375t-319.5 -135q-51 0 -140 13.5t-128 13.5q-16 0 -40.5 -2.5t-51.5 -7.5z" />
<glyph unicode="c" horiz-adv-x="834" d="M784 203v-4q0 -102 -82.5 -163t-218.5 -61q-182 0 -302 130t-120 333q0 220 136.5 360t351.5 140q57 0 105.5 -6t93.5 -19l-7 -215q-27 84 -78 126t-124 42q-138 0 -223 -114t-85 -301q0 -161 85 -262t219 -101q77 0 142.5 30t106.5 85z" />
<glyph unicode="d" horiz-adv-x="985" d="M516 84q103 0 146 58t43 227q0 274 -3.5 350t-11.5 96q-10 26 -39.5 38.5t-79.5 12.5q-160 0 -253 -109t-93 -300q0 -167 81.5 -270t209.5 -103zM877 1436q-12 -100 -20.5 -359.5t-8.5 -580.5q0 -306 11 -389.5t40 -106.5l-192 -12q-5 24 -7 45.5t-2 44.5v24 q-43 -60 -114 -93.5t-158 -33.5q-164 0 -264.5 123t-100.5 326q0 239 146 376.5t401 137.5q34 0 55.5 -1t43.5 -3v215q0 117 -8.5 171t-28.5 85z" />
<glyph unicode="e" horiz-adv-x="872" d="M256 651h18q4 0 49.5 -2t88.5 -2h26q136 0 167.5 14.5t31.5 55.5q0 62 -48.5 106.5t-119.5 44.5q-83 0 -142.5 -60.5t-70.5 -156.5zM793 223v-24q0 -82 -100 -153t-228 -71q-184 0 -294 129.5t-110 348.5q0 223 116 354t310 131q142 0 231 -76.5t89 -193.5q0 -48 -54 -64 t-311 -16q-76 0 -118.5 1t-79.5 3q-8 -27 -11.5 -55.5t-3.5 -61.5q0 -172 81.5 -271.5t219.5 -99.5q75 0 139.5 29.5t123.5 89.5z" />
<glyph unicode="f" horiz-adv-x="483" d="M285 457v-197q0 -139 9.5 -190.5t33.5 -69.5h-234q24 18 33.5 69.5t9.5 190.5v197v387q-20 0 -40 1.5t-41 4.5l-1 65h82v39v60q0 152 7 212t24 91q30 56 112.5 88.5t196.5 32.5q69 0 106.5 -22t37.5 -62q0 -26 -22.5 -44t-55.5 -18q-38 0 -87.5 37t-70.5 37 q-54 0 -78 -79.5t-24 -260.5q0 -44 0.5 -67.5t1.5 -42.5l157 -1q0 -2 1 -8t1 -8q0 -29 -27 -40t-132 -15v-387z" />
<glyph unicode="g" horiz-adv-x="930" d="M401 33q-135 -84 -193 -150.5t-58 -134.5q0 -96 91.5 -157.5t237.5 -61.5q120 0 205.5 78.5t85.5 181.5q0 93 -71 144t-298 100zM621 631q0 109 -47 178.5t-117 69.5q-69 0 -111.5 -53.5t-42.5 -141.5q0 -102 50 -168.5t124 -66.5q64 0 104 49.5t40 132.5zM664 905 q24 1 69 2q82 2 109 10q1 -7 2 -15l2 -9q0 -2 -1 -9t-1 -12q-17 -11 -45 -16.5t-76 -5.5q29 -30 43 -70t14 -90q0 -118 -79 -196.5t-228 -108.5q-93 -43 -139.5 -79.5t-46.5 -67.5q0 -49 243 -111l31 -8q225 -59 299 -120t74 -165q0 -84 -51.5 -150t-208.5 -161l-24 -15 q-176 -106 -304 -106q-144 0 -244 79.5t-100 192.5q0 132 208 300q62 50 95 79q-103 23 -147.5 55.5t-44.5 84.5q0 60 102 111q84 42 131 81q-91 12 -148 85t-57 177q0 130 100 210.5t263 80.5q47 0 85.5 -8t74.5 -25z" />
<glyph unicode="h" horiz-adv-x="938" d="M94 0q26 15 36.5 93t10.5 269q0 64 -2 263.5t-2 335.5v165q0 147 -9.5 201.5t-33.5 73.5l203 35l-16 -662q69 89 137 126.5t162 37.5q79 0 133 -38.5t78 -111.5q11 -35 15.5 -106t4.5 -240v-196v-31q0 -110 9.5 -152t33.5 -63h-200q5 93 7.5 234.5t2.5 373.5 q0 119 -40 167t-135 48q-113 0 -158.5 -62.5t-45.5 -303.5v-197q0 -139 9.5 -190.5t33.5 -69.5h-234z" />
<glyph unicode="i" horiz-adv-x="422" d="M166 1055l-88 139l153 96l86 -141zM94 0q24 18 33.5 69.5t9.5 190.5v197v114q0 204 -9.5 266.5t-32.5 77.5q58 2 107.5 7.5t92.5 14.5q-6 -47 -8 -174.5t-2 -389.5v-117q0 -134 9.5 -185.5t33.5 -70.5h-234z" />
<glyph unicode="j" horiz-adv-x="422" d="M295 938q-6 -67 -9 -145t-3 -183q0 -116 4 -343t4 -339q0 -242 -59.5 -371t-182.5 -155l-4 6q52 39 72 247t20 916q0 194 -9.5 261t-33.5 83zM147 1063l-63 147l162 80l69 -147z" />
<glyph unicode="k" horiz-adv-x="825" d="M94 0q25 16 35 82t10 235q0 45 -1 173.5t-1 211.5q0 80 1 203.5t1 167.5q0 171 -14 240t-49 92l209 31v-897q129 90 205.5 177.5t76.5 141.5q0 17 -4 31t-12 26h207l-264 -282q-27 -27 -44 -42.5t-34 -29.5q105 -134 248.5 -339t185.5 -222h-213l-301 455q-12 19 -24 30 t-21 11q-1 0 -3 -1t-3 -1v-234q0 -139 9.5 -190.5t33.5 -69.5h-234z" />
<glyph unicode="l" horiz-adv-x="422" d="M94 0q25 16 35 82.5t10 236.5q0 47 -1 176t-1 212v315q0 218 -9.5 291.5t-33.5 87.5l201 34q-6 -58 -8 -283.5t-2 -727.5v-162q0 -140 9.5 -192t33.5 -70h-234z" />
<glyph unicode="m" horiz-adv-x="1413" d="M94 0q24 18 33.5 69.5t9.5 190.5v197v63q0 222 -9.5 290t-33.5 85l187 20q5 -24 7.5 -46.5t2.5 -43.5v-20q58 64 132 98.5t152 34.5q73 0 125 -38t76 -109q70 76 138.5 111.5t144.5 35.5q75 0 128.5 -38t76.5 -108q11 -35 15.5 -104t4.5 -235v-189v-57q0 -107 9.5 -147 t33.5 -60h-198q5 96 7.5 203.5t2.5 308.5v27q0 189 -36 239.5t-126 50.5q-46 0 -85 -19t-67 -56q-22 -30 -31.5 -94t-9.5 -220v-223q0 -102 10 -150t33 -67h-231q23 18 32 64.5t9 183.5v78v299q0 108 -38 156t-124 48q-45 0 -83 -19t-66 -56q-24 -30 -33.5 -92.5 t-9.5 -200.5q0 -32 1 -113t1 -131q0 -102 9.5 -150t33.5 -67h-234z" />
<glyph unicode="n" horiz-adv-x="938" d="M94 0q24 18 33.5 69.5t9.5 190.5v197v63q0 222 -9.5 290t-33.5 85l187 20q5 -22 7.5 -48t2.5 -54v-27q61 80 129.5 116t159.5 36q130 0 180.5 -86.5t50.5 -378.5v-209v-57q0 -107 9.5 -147t33.5 -60h-200q5 112 7.5 235t2.5 275v49q0 172 -38.5 218t-136.5 46 q-113 0 -158.5 -62.5t-45.5 -303.5v-197q0 -139 9.5 -190.5t33.5 -69.5h-234z" />
<glyph unicode="o" horiz-adv-x="995" d="M487 862q-126 0 -193 -97t-67 -282q0 -199 81 -314.5t218 -115.5q120 0 181 101t61 301q0 181 -78.5 294t-202.5 113zM522 938q194 0 303 -114.5t109 -315.5q0 -245 -122.5 -389t-330.5 -144q-199 0 -309.5 122t-110.5 341q0 226 128 363t333 137z" />
<glyph unicode="p" horiz-adv-x="973" d="M274 393v-59q0 -170 39.5 -212t149.5 -42q141 0 215 87.5t74 254.5q0 175 -79.5 289t-199.5 114q-44 0 -91 -19.5t-71 -47.5q-20 -26 -28.5 -99.5t-8.5 -265.5zM94 -573q26 32 36.5 125.5t10.5 300.5v317v106q0 346 -10.5 477t-36.5 162l186 23q-2 -23 -4 -51.5t-4 -79.5 q73 64 145 97.5t136 33.5q151 0 253.5 -130t102.5 -327q0 -222 -162 -364t-411 -142q-7 0 -36 3q-10 1 -15 2v-37q0 -3 -1 -17q-1 -55 -1 -106q0 -202 10 -281t35 -112h-234z" />
<glyph unicode="q" horiz-adv-x="977" d="M508 61q122 0 182 99t60 301q0 180 -72.5 290.5t-190.5 110.5q-126 0 -193 -97t-67 -282q0 -194 76.5 -308t204.5 -114zM639 25q196 -119 367.5 -179.5t314.5 -60.5q12 0 25.5 0.5t27.5 1.5q-30 -43 -85 -64.5t-134 -21.5q-143 0 -317 69t-389 211q-183 5 -285.5 125.5 t-102.5 331.5q0 226 128 363t333 137q184 0 288.5 -113.5t104.5 -312.5q0 -188 -71 -313.5t-205 -173.5z" />
<glyph unicode="r" horiz-adv-x="635" d="M94 0q24 18 33.5 69.5t9.5 190.5v197v63q0 222 -9.5 290t-33.5 85q38 6 92.5 15.5t61.5 9.5q31 -1 33 -85q1 -26 2 -40q48 75 100 109t117 34q50 0 80 -21.5t30 -56.5q0 -29 -20.5 -45t-59.5 -16q-16 0 -53 3t-57 3q-84 0 -110.5 -56t-26.5 -264q0 -30 1 -116t1 -142 q0 -107 9.5 -157.5t33.5 -69.5h-234z" />
<glyph unicode="s" horiz-adv-x="729" d="M51 227q34 -90 96.5 -134t157.5 -44q87 0 142 48.5t55 123.5q0 59 -36 102t-157 109q-128 70 -178.5 132t-50.5 143q0 109 82.5 170t232.5 61q46 0 102 -7t117 -20l-6 -174q-38 67 -91 99t-124 32q-72 0 -114.5 -34.5t-42.5 -92.5q0 -101 207 -221l18 -10 q124 -70 165.5 -123.5t41.5 -126.5q0 -116 -109 -200.5t-262 -84.5q-112 0 -186 26.5t-74 66.5q0 16 3.5 58.5t10.5 100.5z" />
<glyph unicode="t" horiz-adv-x="559" d="M150 838l-99 4v65l101 8l4 254l149 45l-6 -299h166q11 0 13.5 -2t2.5 -10q0 -31 -41.5 -46t-124.5 -15h-16l-10 -539v-14q0 -104 24.5 -148.5t79.5 -44.5q33 0 62 15t59 47l-6 -92q-37 -44 -87.5 -67.5t-107.5 -23.5q-86 0 -130 65t-44 193v17z" />
<glyph unicode="u" horiz-adv-x="958" d="M702 -12h-10q-5 0 -6.5 1.5t-1.5 8.5v8l-6 150q-47 -86 -119.5 -133.5t-155.5 -47.5q-80 0 -141 34.5t-94 96.5q-22 44 -31.5 108t-9.5 210v39q0 172 3 338q1 29 1 35q0 34 -9.5 51t-32.5 28l134 21q4 0 8 1t5 1q28 0 35.5 -12.5t7.5 -59.5l-5 -475v-12q0 -150 45 -214.5 t146 -64.5q113 0 160 78.5t47 290.5v238q0 102 -9.5 148.5t-31.5 59.5l200 23q-5 -78 -8.5 -228.5t-3.5 -328.5v-115q0 -139 10 -192t35 -74z" />
<glyph unicode="v" horiz-adv-x="797" d="M332 -10q-127 431 -218 672t-130 249l149 17h19q45 0 156 -382l122 -407q95 255 150 445t55 256q0 20 -4.5 39t-13.5 36h212q-46 -44 -150 -298t-226 -627h-121z" />
<glyph unicode="w" horiz-adv-x="1190" d="M799 -10l-137 514q-46 168 -70 237q-54 -212 -134.5 -460.5t-90.5 -290.5h-134q-88 502 -135.5 695.5t-87.5 229.5l117 9q20 2 33 4q58 0 126 -474q30 -207 50 -333q92 251 142 431t50 257q0 33 -7.5 58.5t-24.5 47.5h247q-10 -16 -15 -33t-5 -36q0 -55 166 -711l4 -14 q75 269 109 439.5t34 270.5q0 27 -6.5 47.5t-19.5 36.5h192q-46 -62 -106 -262t-168 -663h-129z" />
<glyph unicode="x" horiz-adv-x="758" d="M184 926q4 0 8.5 1t6.5 1q21 0 35.5 -14t44.5 -72l120 -250l142 219q46 72 102.5 130.5t124.5 107.5l-322 -519l189 -354q42 -80 74 -120.5t65 -55.5l-108 -20q-4 -1 -12 -2q-15 -3 -19 -3q-32 0 -55.5 21t-55.5 80l-174 330l-145 -254l-3 -5q-48 -87 -48 -124 q0 -7 1.5 -12t3.5 -11h-192q76 52 196 241l21 33l121 189l-145 291q-47 91 -71 122t-48 39z" />
<glyph unicode="y" horiz-adv-x="772" d="M408 139q93 251 147.5 442t54.5 259q0 21 -4.5 40t-13.5 35h213q-65 -75 -202 -439l-103 -269q-182 -462 -320 -633.5t-309 -171.5q-74 0 -125 30.5t-51 69.5q0 21 20 29t84 8q21 0 51 -1t39 -1q106 0 154 20t88 70q74 92 119 193.5t45 171.5q0 43 -50 234.5t-126 416.5 q-55 160 -80 209.5t-49 58.5l141 17h19q43 0 154 -413z" />
<glyph unicode="z" horiz-adv-x="895" d="M850 915l-639 -849h252q197 0 278 28.5t131 98.5l-26 -193h-852l639 848h-195q-168 0 -244 -28t-116 -95l39 190h733z" />
<glyph unicode="{" horiz-adv-x="1024" d="M858 1350q-8 0 -23 1t-22 1q-121 0 -164 -47t-43 -197v-242q0 -166 -43.5 -235.5t-154.5 -100.5q111 -30 154.5 -99.5t43.5 -235.5v-242q0 -149 43.5 -195.5t169.5 -46.5h39v-125h-35q-99 0 -159.5 12t-102.5 40q-55 36 -77.5 100t-22.5 213v244q0 152 -55 213t-189 61 q-7 0 -22 -1t-23 -1v127q8 0 23 -1t22 -1q134 0 189 61.5t55 214.5v244q0 153 22.5 215.5t77.5 97.5q42 28 102 40t160 12h35v-127z" />
<glyph unicode="|" horiz-adv-x="1024" d="M575 1565v-2048h-126v2048h126z" />
<glyph unicode="}" horiz-adv-x="1024" d="M563 1112v-244q0 -152 55.5 -214t190.5 -62q7 0 22 1t23 1v-127q-8 0 -23 1t-22 1q-135 0 -190.5 -62t-55.5 -214v-242q0 -153 -22 -216.5t-76 -99.5q-39 -26 -97.5 -37.5t-160.5 -11.5h-41v125q8 0 23 -1t22 -1q120 0 163.5 47.5t43.5 198.5v240q0 166 43.5 235.5 t154.5 99.5q-111 31 -154.5 100.5t-43.5 235.5v242q0 149 -44 196.5t-169 47.5h-39v125h35q100 0 161 -12.5t103 -39.5q54 -35 76 -98t22 -215z" />
<glyph unicode="~" horiz-adv-x="1706" d="M1530 627q-101 -72 -197.5 -108t-189.5 -36q-43 0 -90.5 9t-100.5 26q-30 10 -87 31q-202 72 -302 72q-83 0 -173.5 -37.5t-211.5 -122.5v133q105 73 202 109t185 36q56 0 116.5 -12.5t174.5 -52.5l44 -16q158 -58 245 -58q84 0 174.5 37t210.5 121v-131z" />
<glyph d="M979 1313l-10 -281q-39 111 -107 163t-174 52q-159 0 -255.5 -116t-119.5 -334h504l-33 -72h-477v-61q0 -34 0.5 -49t2.5 -27h413l-31 -72h-373q32 -180 141.5 -283.5t268.5 -103.5q95 0 175.5 41t137.5 119q-32 -145 -138 -229.5t-257 -84.5q-202 0 -344.5 148 t-175.5 393h-123l31 72h88q-1 14 -1.5 28.5t-0.5 28.5q0 31 0.5 47.5t0.5 32.5h-138l32 72h115q41 263 192 401.5t396 138.5q44 0 130 -12t130 -12z" />
<glyph unicode="&#x20ac;" d="M979 1313l-10 -281q-39 111 -107 163t-174 52q-159 0 -255.5 -116t-119.5 -334h504l-33 -72h-477v-61q0 -34 0.5 -49t2.5 -27h413l-31 -72h-373q32 -180 141.5 -283.5t268.5 -103.5q95 0 175.5 41t137.5 119q-32 -145 -138 -229.5t-257 -84.5q-202 0 -344.5 148 t-175.5 393h-123l31 72h88q-1 14 -1.5 28.5t-0.5 28.5q0 31 0.5 47.5t0.5 32.5h-138l32 72h115q41 263 192 401.5t396 138.5q44 0 130 -12t130 -12z" />
<glyph unicode="&#xa0;" />
<glyph unicode="&#xa1;" horiz-adv-x="537" d="M299 1047q9 -179 28.5 -447.5t49.5 -599.5h-223q10 111 28.5 390t40.5 661zM397 1235l-133 -131l-137 102l133 131z" />
<glyph unicode="&#xa2;" d="M559 1049q-102 -18 -159.5 -119.5t-57.5 -265.5q0 -146 52.5 -233t164.5 -128v746zM874 409q-3 -92 -58 -142.5t-181 -76.5v-190h-76v186q-178 14 -281.5 133t-103.5 310q0 197 104 328t281 159v164h76v-158h10q60 0 121 -14t81 -28q8 -5 12.5 -31.5t4.5 -69.5 q0 -19 -3 -71q0 -12 -1 -19q-35 82 -90.5 122t-134.5 41v-755h10q65 0 128.5 31t100.5 81z" />
<glyph unicode="&#xa3;" d="M383 121q-43 34 -86 51.5t-82 17.5q-44 0 -71 -19.5t-27 -51.5q0 -31 28 -50.5t74 -19.5q50 0 92.5 18.5t71.5 53.5zM444 76q-54 -53 -107 -77t-116 -24q-80 0 -132 41.5t-52 104.5q0 58 48 97.5t118 39.5q53 0 106.5 -17t128.5 -61q14 23 21.5 44.5t7.5 39.5 q0 55 -37.5 150t-116.5 239h-209v72h175q-46 81 -66 143.5t-20 120.5q0 154 110.5 251t290.5 97q69 0 133.5 -9.5t122.5 -29.5l-10 -159q-58 60 -124 90.5t-141 30.5q-110 0 -173.5 -51.5t-63.5 -139.5q0 -79 121 -282l37 -62h268v-72h-232q32 -73 46 -128t14 -103 q0 -74 -20 -138.5t-64 -133.5q32 -15 69 -22t82 -7q102 0 183 30t133 86q1 -5 1.5 -9.5t0.5 -10.5q0 -94 -82 -168t-186 -74q-64 0 -123.5 22t-141.5 79z" />
<glyph unicode="&#xa4;" d="M979 1313l-10 -281q-39 111 -107 163t-174 52q-159 0 -255.5 -116t-119.5 -334h504l-33 -72h-477v-61q0 -34 0.5 -49t2.5 -27h413l-31 -72h-373q32 -180 141.5 -283.5t268.5 -103.5q95 0 175.5 41t137.5 119q-32 -145 -138 -229.5t-257 -84.5q-202 0 -344.5 148 t-175.5 393h-123l31 72h88q-1 14 -1.5 28.5t-0.5 28.5q0 31 0.5 47.5t0.5 32.5h-138l32 72h115q41 263 192 401.5t396 138.5q44 0 130 -12t130 -12z" />
<glyph unicode="&#xa5;" d="M604 530v-135q0 -218 9.5 -296t33.5 -99h-246q23 20 32 93.5t9 301.5v135h-333v72h315l-59 137h-256v72h229l-123 258q-53 114 -92.5 171t-73.5 73q17 0 47 1q64 3 84 3q59 0 92 -26t68 -103q43 -94 97.5 -243t109.5 -322l174 329l10 20q103 195 103 255q0 23 -9.5 44.5 t-27.5 41.5h227l-168 -275l-129 -227h236v-72h-273l-65 -137h338v-72h-359z" />
<glyph unicode="&#xa6;" horiz-adv-x="1024" d="M575 408v-758h-126v758h126zM575 1432v-758h-126v758h126z" />
<glyph unicode="&#xa7;" horiz-adv-x="1024" d="M362 856q-84 -42 -121.5 -93.5t-37.5 -125.5q0 -141 305 -324l162 -100q89 42 129.5 97.5t40.5 133.5q0 112 -245 262q-144 88 -233 150zM180 -95q40 -101 112 -153.5t173 -52.5q102 0 166.5 55t64.5 142q0 112 -244 271l-61 40l-62 40q-259 164 -259 328q0 101 58.5 181 t172.5 135q-48 43 -69 86t-21 96q0 123 93 193.5t257 70.5q45 0 104.5 -7t137.5 -21l-8 -193q-44 74 -104 111t-138 37q-82 0 -129 -38.5t-47 -105.5q0 -101 269 -268l63 -39l6 -4q260 -164 260 -330q0 -100 -61 -176.5t-185 -130.5q69 -56 100 -111t31 -118 q0 -129 -120 -221.5t-287 -92.5q-129 0 -208 29t-79 76q0 25 3.5 69t10.5 102z" />
<glyph unicode="&#xa8;" horiz-adv-x="1024" d="M692 1329l103 -123l-144 -119l-102 121zM371 1329l102 -123l-143 -119l-101 121z" />
<glyph unicode="&#xa9;" horiz-adv-x="1706" d="M1065 911q-15 77 -70.5 120.5t-138.5 43.5q-117 0 -182.5 -92.5t-65.5 -259.5q0 -160 66.5 -252t181.5 -92q87 0 145.5 48.5t73.5 133.5h129q-11 -127 -109 -207t-245 -80q-176 0 -280.5 121t-104.5 326q0 208 107.5 332.5t287.5 124.5q137 0 230 -74.5t104 -192.5h-129z M1501 725q0 130 -49 249t-139 210q-92 92 -210 140t-251 48q-132 0 -247.5 -47.5t-205.5 -138.5q-93 -95 -142.5 -214t-49.5 -247q0 -127 49 -244t141 -211q93 -92 209.5 -141t245.5 -49t248.5 50t214.5 142q91 90 138.5 205.5t47.5 247.5zM852 1460q151 0 285 -55t239 -160 q102 -102 156.5 -236t54.5 -284q0 -151 -54 -283t-157 -233q-109 -106 -244.5 -162.5t-279.5 -56.5q-146 0 -278 55.5t-238 161.5q-106 105 -161.5 238.5t-55.5 279.5q0 145 56.5 279.5t162.5 242.5q102 104 234 158.5t280 54.5z" />
<glyph unicode="&#xaa;" horiz-adv-x="623" d="M416 924q-169 -63 -213.5 -99t-44.5 -86q0 -40 33 -66t85 -26q72 0 106 43t34 133v101zM440 571q-8 22 -13 49.5t-7 60.5q-31 -57 -81 -87.5t-114 -30.5q-80 0 -137 44.5t-57 105.5q0 55 46.5 96.5t207.5 108.5q95 38 116 62.5t21 80.5q0 67 -31 98t-98 31q-32 0 -56 -10 t-38 -29q-7 -8 -17 -31q-29 -63 -73 -63q-26 0 -42 14.5t-16 38.5q0 56 79.5 91.5t211.5 35.5q102 0 146 -32.5t44 -106.5q0 -12 -3 -104t-3 -175q0 -105 13 -164.5t38 -74.5z" />
<glyph unicode="&#xab;" horiz-adv-x="891" d="M829 842q-6 -44 -20 -79.5t-37 -62.5l-203 -235l203 -236q23 -25 37 -59.5t20 -80.5l-446 376zM508 842q-6 -42 -21 -77.5t-38 -64.5l-203 -235l203 -236q23 -26 37.5 -61t21.5 -80l-447 377z" />
<glyph unicode="&#xac;" horiz-adv-x="1706" d="M1452 858v-502h-115v385h-1083v117h1198z" />
<glyph unicode="&#xad;" horiz-adv-x="678" d="M62 412l90 116h464l-88 -122h-432q-15 0 -22.5 1.5t-11.5 4.5z" />
<glyph unicode="&#xae;" horiz-adv-x="1706" d="M846 1065h-144v-291h148q123 0 175 33t52 108q0 79 -54.5 114.5t-176.5 35.5zM872 1157q178 0 264.5 -57t86.5 -174q0 -89 -53 -148.5t-144 -75.5l188 -385h-157l-176 365h-179v-365h-141v840h311zM1501 721q0 133 -48 251.5t-138 209.5q-94 93 -211.5 141.5t-251.5 48.5 q-132 0 -247 -47t-204 -137q-94 -95 -144 -214t-50 -249q0 -127 49 -244t141 -211q91 -92 208 -141t245 -49q131 0 249.5 48.5t213.5 141.5q91 90 139.5 206t48.5 245zM852 1460q150 0 284 -55.5t240 -161.5q102 -102 156.5 -235.5t54.5 -282.5q0 -151 -54.5 -283 t-158.5 -233q-109 -106 -243.5 -162.5t-278.5 -56.5q-145 0 -278.5 56t-239.5 163q-105 104 -160 237t-55 279q0 147 57 282t164 242q101 103 232 157t280 54z" />
<glyph unicode="&#xaf;" horiz-adv-x="1024" d="M254 1270h516v-125h-516v125z" />
<glyph unicode="&#xb0;" horiz-adv-x="674" d="M539 1171q0 84 -58.5 142.5t-142.5 58.5t-143.5 -58.5t-59.5 -142.5t59.5 -143t143.5 -59t142.5 59t58.5 143zM338 1454q117 0 200 -83t83 -200q0 -116 -83.5 -199t-201.5 -83t-199.5 82t-81.5 200q0 119 82.5 201t200.5 82z" />
<glyph unicode="&#xb1;" horiz-adv-x="1706" d="M1452 158v-117h-1198v117h1198zM913 1180v-344h539v-117h-539v-344h-118v344h-541v117h541v344h118z" />
<glyph unicode="&#xb2;" horiz-adv-x="707" d="M53 524l203 232q107 120 155 203t48 147q0 69 -45 109t-123 40q-48 0 -96.5 -18t-96.5 -53v8q0 60 67 97.5t175 37.5q106 0 169.5 -51.5t63.5 -138.5q0 -60 -33 -124.5t-100 -133.5l-260 -281l291 4q41 0 67.5 6t51.5 19v-15q0 -7 -6.5 -32.5t-16.5 -55.5h-514z" />
<glyph unicode="&#xb3;" horiz-adv-x="707" d="M221 967q99 28 150 73t51 103q0 56 -38.5 88.5t-104.5 32.5q-34 0 -70 -11t-72 -32q0 55 50 80.5t157 25.5q85 0 139 -42.5t54 -108.5q0 -74 -47.5 -124t-143.5 -77q118 -36 175 -94t57 -142q0 -95 -81 -162t-200 -67q-102 0 -156.5 31t-56.5 89q37 -27 81 -42t91 -15 q90 0 144.5 49t54.5 128q0 81 -60 136.5t-174 80.5z" />
<glyph unicode="&#xb4;" horiz-adv-x="1024" d="M584 1399h178q-82 -153 -176 -238t-211 -112q70 94 122 182t87 168z" />
<glyph unicode="&#xb5;" horiz-adv-x="1128" d="M362 1069l-126 -595q-8 -33 -11.5 -67t-3.5 -71q0 -109 57 -168t160 -59q125 0 208 101t128 308l121 551h156l-162 -754q-12 -52 -17.5 -84t-5.5 -51q0 -32 18.5 -48.5t53.5 -16.5q9 0 17.5 0.5t17.5 1.5l-27 -125q-21 -5 -44 -7.5t-48 -2.5q-70 0 -104.5 35t-40.5 112 q-41 -70 -117 -108.5t-172 -38.5q-87 0 -152.5 34t-109.5 103l-113 -545h-156l316 1495h157z" />
<glyph unicode="&#xb6;" horiz-adv-x="1024" d="M948 1401h-125v-1401h-94v1401h-182v-1401h-96v782q-173 8 -274 102.5t-101 245.5q0 157 107.5 253t285.5 96h479v-78z" />
<glyph unicode="&#xb7;" horiz-adv-x="537" d="M156 657q0 45 33.5 78t78.5 33t78 -33t33 -78q0 -44 -33 -78t-78 -34t-78.5 33.5t-33.5 78.5z" />
<glyph unicode="&#xb8;" horiz-adv-x="1024" d="M440 0h72v-106h23q111 0 169 -45t58 -132q0 -89 -63 -135.5t-185 -46.5q-133 0 -191.5 33.5t-64.5 114.5q60 -29 122.5 -42.5t133.5 -13.5q58 0 88.5 22.5t30.5 65.5q0 48 -33.5 71.5t-101.5 23.5q-16 0 -30 -1l-28 -2v193z" />
<glyph unicode="&#xb9;" horiz-adv-x="707" d="M267 525q19 17 26.5 89t7.5 301v54v67q0 145 -7.5 192.5t-27.5 61.5l152 37q-6 -176 -9 -277.5t-3 -129.5q0 -244 7.5 -310.5t26.5 -85.5z" />
<glyph unicode="&#xba;" horiz-adv-x="748" d="M367 1184q-96 0 -146.5 -68.5t-50.5 -197.5q0 -140 61 -221t164 -81q90 0 135 71t45 210q0 127 -58 207t-150 80zM391 1237q146 0 227.5 -80t81.5 -221q0 -172 -91.5 -272.5t-248.5 -100.5q-148 0 -230.5 85t-82.5 239q0 158 95 254t249 96z" />
<glyph unicode="&#xbb;" horiz-adv-x="891" d="M383 88q6 42 21 77.5t38 63.5l203 236l-203 235q-23 27 -38 62t-21 80l446 -377zM61 88q7 44 21 79t37 62l203 236l-203 235q-23 26 -37 60.5t-20 80.5l446 -376z" />
<glyph unicode="&#xbc;" horiz-adv-x="1692" d="M1419 313l4 332l-280 -332h276zM1520 221q0 -124 5.5 -166.5t20.5 -54.5h-155q14 12 20 54.5t6 166.5v37h-379l254 302l174 190h54v-437h30q36 0 61 1t50 3q-13 -30 -42 -42.5t-99 -14.5v-39zM334 -25l921 1362h103l-922 -1362h-102zM254 578q18 15 25.5 83.5t7.5 282.5 v49v64q0 133 -7.5 177.5t-25.5 57.5l143 35q-4 -126 -7 -231t-3 -150q0 -227 7 -289t26 -79h-166z" />
<glyph unicode="&#xbd;" horiz-adv-x="1692" d="M1069 0l195 215q102 114 147 191t45 137q0 64 -43 101.5t-119 37.5q-45 0 -92 -17t-92 -51v9q0 56 64 91.5t167 35.5q102 0 163 -48.5t61 -130.5q0 -55 -31 -114t-96 -127l-248 -260l276 4q46 0 69.5 4.5t45.5 15.5v-12q0 -7 -6.5 -31t-15.5 -51h-490zM334 -25l921 1362 h103l-922 -1362h-102zM254 578q18 15 25.5 83.5t7.5 282.5v49v64q0 133 -7.5 177.5t-25.5 57.5l143 35q-4 -126 -7 -231t-3 -150q0 -227 7 -289t26 -79h-166z" />
<glyph unicode="&#xbe;" horiz-adv-x="1692" d="M1417 313l4 332l-280 -332h276zM1518 221q0 -124 5.5 -166.5t20.5 -54.5h-155q14 12 20 54.5t6 166.5v37h-379l254 302l174 190h54v-437h30q36 0 61 1t50 3q-14 -30 -42.5 -42.5t-98.5 -14.5v-39zM332 -25l921 1362h103l-922 -1362h-102zM211 991q94 26 143 68t49 96 q0 53 -36.5 83t-100.5 30q-34 0 -68.5 -10.5t-66.5 -30.5q0 51 47.5 75.5t149.5 24.5q81 0 132.5 -39.5t51.5 -101.5q0 -69 -45 -116t-137 -73q113 -32 167 -85.5t54 -133.5q0 -90 -77 -152.5t-189 -62.5q-99 0 -151.5 29.5t-53.5 84.5q34 -26 76 -40t88 -14q86 0 138 45.5 t52 119.5q0 76 -57.5 128.5t-165.5 74.5z" />
<glyph unicode="&#xbf;" horiz-adv-x="721" d="M471 1075q9 -33 13.5 -67t4.5 -70q0 -144 -112 -294l-25 -34q-84 -116 -108.5 -178.5t-24.5 -128.5q0 -93 60 -153t153 -60q61 0 115.5 21t97.5 61l-12 -113q-51 -39 -121 -61.5t-145 -22.5q-148 0 -234 83t-86 225q0 168 183 387l59 71q67 86 111 167t71 167zM592 1255 l-131 -141l-148 82l121 141z" />
<glyph unicode="&#xc0;" horiz-adv-x="1241" d="M393 645h414l-193 529zM-63 0q93 112 187 281t198 413q87 203 143.5 363t56.5 192q0 16 -4 31.5t-12 32.5h254q149 -496 281 -837t227 -476h-224l-206 569h-478l-88 -215l-2 -5q-82 -197 -82 -286q0 -14 2.5 -29.5t7.5 -33.5h-261zM389 1796h178q36 -83 88.5 -171.5 t120.5 -178.5q-115 25 -210 111t-177 239z" />
<glyph unicode="&#xc1;" horiz-adv-x="1241" d="M393 645h414l-193 529zM-63 0q93 112 187 281t198 413q87 203 143.5 363t56.5 192q0 16 -4 31.5t-12 32.5h254q149 -496 281 -837t227 -476h-224l-206 569h-478l-88 -215l-2 -5q-82 -197 -82 -286q0 -14 2.5 -29.5t7.5 -33.5h-261zM711 1796h178q-82 -153 -176 -238 t-211 -112q70 94 122 182t87 168z" />
<glyph unicode="&#xc2;" horiz-adv-x="1241" d="M393 645h414l-193 529zM-63 0q93 112 187 281t198 413q87 203 143.5 363t56.5 192q0 16 -4 31.5t-12 32.5h254q149 -496 281 -837t227 -476h-224l-206 569h-478l-88 -215l-2 -5q-82 -197 -82 -286q0 -14 2.5 -29.5t7.5 -33.5h-261zM834 1446q-53 54 -102 115t-93 128 q-45 -67 -93.5 -128t-101.5 -115h-92q82 130 125.5 208t71.5 142h178q28 -64 71 -142t126 -208h-90z" />
<glyph unicode="&#xc3;" horiz-adv-x="1241" d="M393 645h414l-193 529zM-63 0q93 112 187 281t198 413q87 203 143.5 363t56.5 192q0 16 -4 31.5t-12 32.5h254q149 -496 281 -837t227 -476h-224l-206 569h-478l-88 -215l-2 -5q-82 -197 -82 -286q0 -14 2.5 -29.5t7.5 -33.5h-261zM842 1714h88q-24 -93 -75 -142 t-124 -49q-19 0 -34.5 2.5t-31.5 8.5l-79 26q-12 4 -26 6t-27 2q-36 0 -59 -14.5t-38 -48.5h-88q21 91 71.5 138.5t125.5 47.5q14 0 29 -2.5t32 -7.5l79 -27q17 -5 32 -7.5t28 -2.5q36 0 59.5 17t37.5 53z" />
<glyph unicode="&#xc4;" horiz-adv-x="1241" d="M393 645h414l-193 529zM-63 0q93 112 187 281t198 413q87 203 143.5 363t56.5 192q0 16 -4 31.5t-12 32.5h254q149 -496 281 -837t227 -476h-224l-206 569h-478l-88 -215l-2 -5q-82 -197 -82 -286q0 -14 2.5 -29.5t7.5 -33.5h-261zM819 1726l103 -123l-144 -119l-102 121 zM498 1726l102 -123l-143 -119l-101 121z" />
<glyph unicode="&#xc5;" horiz-adv-x="1241" d="M639 1769q-60 0 -101.5 -41.5t-41.5 -101.5q0 -59 41.5 -100t101.5 -41t100.5 40.5t40.5 100.5t-41 101.5t-100 41.5zM637 1876q103 0 175.5 -72.5t72.5 -175.5q0 -104 -72 -176t-176 -72q-105 0 -176.5 72t-71.5 176q0 105 71.5 176.5t176.5 71.5zM-63 0q93 112 187 281 t198 413q87 203 143.5 363t56.5 192q0 16 -4 31.5t-12 32.5h254q149 -496 281 -837t227 -476h-224l-206 569h-478l-88 -215l-2 -5q-82 -197 -82 -286q0 -14 2.5 -29.5t7.5 -33.5h-261zM393 645h414l-193 529z" />
<glyph unicode="&#xc6;" horiz-adv-x="1651" d="M385 578h422q-1 51 -1.5 108t-0.5 158v151q0 153 -9 199.5t-32 46.5q-18 0 -33 -15.5t-43 -68.5zM-96 0q78 84 173.5 234.5t262.5 459.5q158 292 214 408.5t56 146.5q0 17 -5 31.5t-17 32.5h293q122 0 294.5 3t223.5 3q2 0 12 -1q31 -1 59 -1l17 -193q-24 63 -96.5 88 t-276.5 25h-115q-9 -43 -13.5 -142.5t-3.5 -287.5v-68q25 -2 56.5 -3t102.5 -1q121 0 203 5.5t147 17.5q-56 -65 -148.5 -92t-308.5 -27q-5 0 -22.5 1t-29.5 1v-133q0 -188 4 -288.5t13 -143.5h119q203 0 305 32.5t158 108.5l-35 -205q-42 -8 -94 -12t-111 -4 q-46 0 -185.5 2t-233.5 2h-168q47 57 52 439q1 41 1 63h-461l-80 -148q-49 -93 -76.5 -169.5t-27.5 -118.5q0 -20 3.5 -36t10.5 -30h-272z" />
<glyph unicode="&#xc7;" horiz-adv-x="1214" d="M1077 1313l-12 -281q-44 107 -123 161t-192 54q-220 0 -345.5 -145t-125.5 -400q0 -263 137.5 -419t367.5 -156q109 0 203.5 42t163.5 120q-36 -143 -161.5 -228.5t-301.5 -85.5q-268 0 -440 187t-172 481q0 325 185 509.5t511 184.5q51 0 152.5 -12t152.5 -12zM596 0h72 v-106h23q111 0 169 -45t58 -132q0 -89 -63 -135.5t-185 -46.5q-133 0 -191.5 33.5t-64.5 114.5q60 -29 122.5 -42.5t133.5 -13.5q58 0 88.5 22.5t30.5 65.5q0 48 -33.5 71.5t-101.5 23.5q-16 0 -30 -1l-28 -2v193z" />
<glyph unicode="&#xc8;" horiz-adv-x="1014" d="M119 0q28 30 39.5 138t11.5 462v84q0 386 -11.5 492.5t-39.5 136.5h127q136 0 308.5 3t209.5 3q2 0 12 -1q31 -1 60 -1l16 -193q-24 63 -96.5 88t-276.5 25h-114q-10 -43 -14.5 -142.5t-4.5 -287.5v-68q25 -2 57 -3t103 -1q121 0 203 5.5t147 17.5q-56 -65 -148.5 -92 t-308.5 -27q-5 0 -22.5 1t-30.5 1v-133q0 -188 4.5 -288.5t14.5 -143.5h118q203 0 305 32.5t158 108.5l-35 -205q-41 -8 -93.5 -12t-110.5 -4q-47 0 -186.5 2t-233.5 2h-168zM231 1796h178q36 -83 88.5 -171.5t120.5 -178.5q-115 25 -210 111t-177 239z" />
<glyph unicode="&#xc9;" horiz-adv-x="1014" d="M119 0q28 30 39.5 138t11.5 462v84q0 386 -11.5 492.5t-39.5 136.5h127q136 0 308.5 3t209.5 3q2 0 12 -1q31 -1 60 -1l16 -193q-24 63 -96.5 88t-276.5 25h-114q-10 -43 -14.5 -142.5t-4.5 -287.5v-68q25 -2 57 -3t103 -1q121 0 203 5.5t147 17.5q-56 -65 -148.5 -92 t-308.5 -27q-5 0 -22.5 1t-30.5 1v-133q0 -188 4.5 -288.5t14.5 -143.5h118q203 0 305 32.5t158 108.5l-35 -205q-41 -8 -93.5 -12t-110.5 -4q-47 0 -186.5 2t-233.5 2h-168zM553 1796h178q-82 -153 -176 -238t-211 -112q70 94 122 182t87 168z" />
<glyph unicode="&#xca;" horiz-adv-x="1014" d="M119 0q28 30 39.5 138t11.5 462v84q0 386 -11.5 492.5t-39.5 136.5h127q136 0 308.5 3t209.5 3q2 0 12 -1q31 -1 60 -1l16 -193q-24 63 -96.5 88t-276.5 25h-114q-10 -43 -14.5 -142.5t-4.5 -287.5v-68q25 -2 57 -3t103 -1q121 0 203 5.5t147 17.5q-56 -65 -148.5 -92 t-308.5 -27q-5 0 -22.5 1t-30.5 1v-133q0 -188 4.5 -288.5t14.5 -143.5h118q203 0 305 32.5t158 108.5l-35 -205q-41 -8 -93.5 -12t-110.5 -4q-47 0 -186.5 2t-233.5 2h-168zM676 1446q-53 54 -102 115t-93 128q-45 -67 -93.5 -128t-101.5 -115h-92q82 130 125.5 208 t71.5 142h178q28 -64 71 -142t126 -208h-90z" />
<glyph unicode="&#xcb;" horiz-adv-x="1014" d="M119 0q28 30 39.5 138t11.5 462v84q0 386 -11.5 492.5t-39.5 136.5h127q136 0 308.5 3t209.5 3q2 0 12 -1q31 -1 60 -1l16 -193q-24 63 -96.5 88t-276.5 25h-114q-10 -43 -14.5 -142.5t-4.5 -287.5v-68q25 -2 57 -3t103 -1q121 0 203 5.5t147 17.5q-56 -65 -148.5 -92 t-308.5 -27q-5 0 -22.5 1t-30.5 1v-133q0 -188 4.5 -288.5t14.5 -143.5h118q203 0 305 32.5t158 108.5l-35 -205q-41 -8 -93.5 -12t-110.5 -4q-47 0 -186.5 2t-233.5 2h-168zM661 1726l103 -123l-144 -119l-102 121zM340 1726l102 -123l-143 -119l-101 121z" />
<glyph unicode="&#xcc;" horiz-adv-x="516" d="M119 0q28 30 39.5 138t11.5 462v84q0 386 -11.5 492.5t-39.5 136.5h278q-28 -29 -39.5 -133t-11.5 -443v-80v-79q0 -340 11.5 -444.5t39.5 -133.5h-278zM8 1796h178q36 -83 88.5 -171.5t120.5 -178.5q-115 25 -210 111t-177 239z" />
<glyph unicode="&#xcd;" horiz-adv-x="516" d="M119 0q28 30 39.5 138t11.5 462v84q0 386 -11.5 492.5t-39.5 136.5h278q-28 -29 -39.5 -133t-11.5 -443v-80v-79q0 -340 11.5 -444.5t39.5 -133.5h-278zM330 1796h178q-82 -153 -176 -238t-211 -112q70 94 122 182t87 168z" />
<glyph unicode="&#xce;" horiz-adv-x="516" d="M119 0q28 30 39.5 138t11.5 462v84q0 386 -11.5 492.5t-39.5 136.5h278q-28 -29 -39.5 -133t-11.5 -443v-80v-79q0 -340 11.5 -444.5t39.5 -133.5h-278zM453 1446q-53 54 -102 115t-93 128q-45 -67 -93.5 -128t-101.5 -115h-92q82 130 125.5 208t71.5 142h178 q28 -64 71 -142t126 -208h-90z" />
<glyph unicode="&#xcf;" horiz-adv-x="516" d="M119 0q28 30 39.5 138t11.5 462v84q0 386 -11.5 492.5t-39.5 136.5h278q-28 -29 -39.5 -133t-11.5 -443v-80v-79q0 -340 11.5 -444.5t39.5 -133.5h-278zM438 1726l103 -123l-144 -119l-102 121zM117 1726l102 -123l-143 -119l-101 121z" />
<glyph unicode="&#xd0;" horiz-adv-x="1450" d="M410 1229q-9 -47 -13 -147.5t-4 -274.5v-64h328v-84h-328v-151q0 -132 3 -222t7 -124q8 -51 55.5 -68.5t182.5 -17.5q250 0 388 150.5t138 424.5q0 287 -144 442.5t-409 155.5q-56 0 -106.5 -5t-97.5 -15zM166 0q29 31 40 134.5t11 434.5v90h-170v84h170v56 q0 283 -11.5 382.5t-39.5 131.5h149q90 0 241 12t214 12q282 0 443 -165.5t161 -454.5q0 -336 -193 -531.5t-524 -195.5q-73 0 -190.5 5t-161.5 5h-139z" />
<glyph unicode="&#xd1;" horiz-adv-x="1356" d="M258 1157l6 -661q2 -238 17.5 -340.5t50.5 -155.5h-238q40 51 58 236.5t18 541.5q0 315 -16.5 409.5t-59.5 125.5h213q58 0 129 -108l29 -44l179 -269q280 -427 450 -659l2 574q0 276 -12 373.5t-42 132.5h195q-30 -28 -41.5 -149.5t-11.5 -491.5v-262v-416h-133 q-68 108 -339 500zM899 1714h88q-24 -93 -75 -142t-124 -49q-19 0 -34.5 2.5t-31.5 8.5l-79 26q-12 4 -26 6t-27 2q-36 0 -59 -14.5t-38 -48.5h-88q21 91 71.5 138.5t125.5 47.5q14 0 29 -2.5t32 -7.5l79 -27q17 -5 32 -7.5t28 -2.5q36 0 59.5 17t37.5 53z" />
<glyph unicode="&#xd2;" horiz-adv-x="1421" d="M741 74q187 0 293.5 144.5t106.5 402.5q0 291 -114 457.5t-312 166.5q-204 0 -318 -147t-114 -412q0 -290 120.5 -451t337.5 -161zM678 -25q-289 0 -445.5 170.5t-156.5 485.5q0 343 170 524.5t491 181.5q303 0 456 -161.5t153 -481.5q0 -327 -182 -523t-486 -196z M461 1796h178q36 -83 88.5 -171.5t120.5 -178.5q-115 25 -210 111t-177 239z" />
<glyph unicode="&#xd3;" horiz-adv-x="1421" d="M741 74q187 0 293.5 144.5t106.5 402.5q0 291 -114 457.5t-312 166.5q-204 0 -318 -147t-114 -412q0 -290 120.5 -451t337.5 -161zM678 -25q-289 0 -445.5 170.5t-156.5 485.5q0 343 170 524.5t491 181.5q303 0 456 -161.5t153 -481.5q0 -327 -182 -523t-486 -196z M783 1796h178q-82 -153 -176 -238t-211 -112q70 94 122 182t87 168z" />
<glyph unicode="&#xd4;" horiz-adv-x="1421" d="M741 74q187 0 293.5 144.5t106.5 402.5q0 291 -114 457.5t-312 166.5q-204 0 -318 -147t-114 -412q0 -290 120.5 -451t337.5 -161zM678 -25q-289 0 -445.5 170.5t-156.5 485.5q0 343 170 524.5t491 181.5q303 0 456 -161.5t153 -481.5q0 -327 -182 -523t-486 -196z M906 1446q-53 54 -102 115t-93 128q-45 -67 -93.5 -128t-101.5 -115h-92q82 130 125.5 208t71.5 142h178q28 -64 71 -142t126 -208h-90z" />
<glyph unicode="&#xd5;" horiz-adv-x="1421" d="M741 74q187 0 293.5 144.5t106.5 402.5q0 291 -114 457.5t-312 166.5q-204 0 -318 -147t-114 -412q0 -290 120.5 -451t337.5 -161zM678 -25q-289 0 -445.5 170.5t-156.5 485.5q0 343 170 524.5t491 181.5q303 0 456 -161.5t153 -481.5q0 -327 -182 -523t-486 -196z M914 1714h88q-24 -93 -75 -142t-124 -49q-19 0 -34.5 2.5t-31.5 8.5l-79 26q-12 4 -26 6t-27 2q-36 0 -59 -14.5t-38 -48.5h-88q21 91 71.5 138.5t125.5 47.5q14 0 29 -2.5t32 -7.5l79 -27q17 -5 32 -7.5t28 -2.5q36 0 59.5 17t37.5 53z" />
<glyph unicode="&#xd6;" horiz-adv-x="1421" d="M741 74q187 0 293.5 144.5t106.5 402.5q0 291 -114 457.5t-312 166.5q-204 0 -318 -147t-114 -412q0 -290 120.5 -451t337.5 -161zM678 -25q-289 0 -445.5 170.5t-156.5 485.5q0 343 170 524.5t491 181.5q303 0 456 -161.5t153 -481.5q0 -327 -182 -523t-486 -196z M891 1726l103 -123l-144 -119l-102 121zM570 1726l102 -123l-143 -119l-101 121z" />
<glyph unicode="&#xd7;" horiz-adv-x="1706" d="M858 692l475 477l82 -82l-475 -477l475 -475l-82 -82l-475 475l-477 -475l-80 82l475 475l-475 477l80 82z" />
<glyph unicode="&#xd8;" horiz-adv-x="1421" d="M150 -61h-125l194 223q-72 86 -107.5 202t-35.5 265q0 344 170 526t491 182q131 0 230 -28t174 -86l131 151h127l-189 -217q67 -86 101.5 -204.5t34.5 -260.5q0 -327 -182 -522t-486 -195q-126 0 -217.5 29.5t-173.5 93.5zM352 317l670 766q-53 80 -131.5 121t-175.5 41 q-204 0 -318 -148t-114 -415q0 -104 17 -193t52 -172zM406 233q65 -82 146.5 -120.5t188.5 -38.5q187 0 293.5 144.5t106.5 402.5q0 105 -18 202t-52 174z" />
<glyph unicode="&#xd9;" horiz-adv-x="1346" d="M1004 0l6 193q-64 -105 -174 -161.5t-250 -56.5q-217 0 -317.5 105.5t-100.5 333.5q0 61 1 142.5t1 100.5q0 404 -11.5 514.5t-39.5 141.5h278q-30 -28 -41.5 -154.5t-11.5 -556.5q0 -315 71 -415.5t249 -100.5q182 0 258.5 125t76.5 446q0 405 -11 515.5t-40 140.5h281 q-30 -30 -41.5 -140.5t-11.5 -515.5t11.5 -516t41.5 -141h-225zM424 1796h178q36 -83 88.5 -171.5t120.5 -178.5q-115 25 -210 111t-177 239z" />
<glyph unicode="&#xda;" horiz-adv-x="1346" d="M1004 0l6 193q-64 -105 -174 -161.5t-250 -56.5q-217 0 -317.5 105.5t-100.5 333.5q0 61 1 142.5t1 100.5q0 404 -11.5 514.5t-39.5 141.5h278q-30 -28 -41.5 -154.5t-11.5 -556.5q0 -315 71 -415.5t249 -100.5q182 0 258.5 125t76.5 446q0 405 -11 515.5t-40 140.5h281 q-30 -30 -41.5 -140.5t-11.5 -515.5t11.5 -516t41.5 -141h-225zM746 1796h178q-82 -153 -176 -238t-211 -112q70 94 122 182t87 168z" />
<glyph unicode="&#xdb;" horiz-adv-x="1346" d="M1004 0l6 193q-64 -105 -174 -161.5t-250 -56.5q-217 0 -317.5 105.5t-100.5 333.5q0 61 1 142.5t1 100.5q0 404 -11.5 514.5t-39.5 141.5h278q-30 -28 -41.5 -154.5t-11.5 -556.5q0 -315 71 -415.5t249 -100.5q182 0 258.5 125t76.5 446q0 405 -11 515.5t-40 140.5h281 q-30 -30 -41.5 -140.5t-11.5 -515.5t11.5 -516t41.5 -141h-225zM869 1446q-53 54 -102 115t-93 128q-45 -67 -93.5 -128t-101.5 -115h-92q82 130 125.5 208t71.5 142h178q28 -64 71 -142t126 -208h-90z" />
<glyph unicode="&#xdc;" horiz-adv-x="1346" d="M1004 0l6 193q-64 -105 -174 -161.5t-250 -56.5q-217 0 -317.5 105.5t-100.5 333.5q0 61 1 142.5t1 100.5q0 404 -11.5 514.5t-39.5 141.5h278q-30 -28 -41.5 -154.5t-11.5 -556.5q0 -315 71 -415.5t249 -100.5q182 0 258.5 125t76.5 446q0 405 -11 515.5t-40 140.5h281 q-30 -30 -41.5 -140.5t-11.5 -515.5t11.5 -516t41.5 -141h-225zM854 1726l103 -123l-144 -119l-102 121zM533 1726l102 -123l-143 -119l-101 121z" />
<glyph unicode="&#xdd;" horiz-adv-x="995" d="M336 0q26 47 39.5 124t13.5 183q0 191 -52 361.5t-185 400.5q-50 86 -97 149t-84 95h70h96q63 0 95 -24.5t69 -100.5q58 -120 108 -249.5t107 -305.5l174 319l13 24q102 191 102 251q0 23 -9.5 44.5t-27.5 41.5h262l-242 -369q-94 -149 -137 -231q-47 -94 -67.5 -194.5 t-20.5 -309.5q0 -60 10 -111.5t31 -97.5h-268zM570 1796h178q-82 -153 -176 -238t-211 -112q70 94 122 182t87 168z" />
<glyph unicode="&#xde;" horiz-adv-x="1014" d="M397 1313q-22 -28 -34.5 -88t-12.5 -144l1 -3q1 -13 1 -25q80 8 138 12t102 4q188 0 286.5 -90.5t98.5 -263.5q0 -180 -106 -294t-273 -114q-60 0 -111.5 11.5t-93.5 33.5h21q167 0 261.5 93.5t94.5 261.5q0 141 -66 210.5t-202 69.5q-37 0 -74.5 -4t-77.5 -12 q-2 -67 -3 -136t-1 -178v-79q0 -340 11.5 -444.5t39.5 -133.5h-278q28 30 39.5 138t11.5 462v84q0 386 -11.5 492.5t-39.5 136.5h278z" />
<glyph unicode="&#xdf;" horiz-adv-x="977" d="M285 457v-197q0 -139 9.5 -190.5t33.5 -69.5h-234q24 18 33.5 69.5t9.5 190.5v197v387q-20 0 -40 1.5t-41 4.5l-1 65h82v39v66q0 135 5.5 192t19.5 91q27 65 104.5 99t200.5 34q133 0 211 -65.5t78 -174.5q0 -59 -29.5 -111.5t-85.5 -93.5l-47 -31q-72 -45 -72 -73 q0 -22 86 -89q69 -54 111 -91q108 -97 152 -183t44 -194q0 -157 -88 -256t-229 -99q-88 0 -146.5 26t-58.5 67q0 24 4 59t13 86q19 -78 68.5 -122t117.5 -44q75 0 120.5 64.5t45.5 173.5q0 86 -37 163.5t-109 141.5q-15 14 -44 39q-181 161 -181 221q0 26 15.5 47.5 t60.5 54.5q80 59 106.5 104.5t26.5 106.5q0 97 -45.5 155t-118.5 58q-85 0 -118 -65t-33 -299v-94v-461z" />
<glyph unicode="&#xe0;" horiz-adv-x="829" d="M555 492q-230 -92 -288 -142.5t-58 -120.5q0 -59 44 -96t116 -37q95 0 140.5 61.5t45.5 190.5v144zM586 -12q-12 32 -18.5 72t-8.5 87q-40 -83 -107 -127.5t-153 -44.5q-106 0 -182 64.5t-76 150.5q0 80 63 139t275 152q126 56 154 91t28 114q0 97 -41.5 141.5 t-130.5 44.5q-41 0 -73.5 -14t-51.5 -41q-8 -12 -22 -44q-38 -91 -99 -91q-33 0 -54 21t-21 55q0 79 106 129.5t283 50.5q135 0 194.5 -45.5t59.5 -151.5q0 -17 -5.5 -149.5t-5.5 -249.5q0 -150 17.5 -235.5t52.5 -106.5zM176 1399h178q36 -83 88.5 -171.5t120.5 -178.5 q-115 25 -210 111t-177 239z" />
<glyph unicode="&#xe1;" horiz-adv-x="829" d="M555 492q-230 -92 -288 -142.5t-58 -120.5q0 -59 44 -96t116 -37q95 0 140.5 61.5t45.5 190.5v144zM586 -12q-12 32 -18.5 72t-8.5 87q-40 -83 -107 -127.5t-153 -44.5q-106 0 -182 64.5t-76 150.5q0 80 63 139t275 152q126 56 154 91t28 114q0 97 -41.5 141.5 t-130.5 44.5q-41 0 -73.5 -14t-51.5 -41q-8 -12 -22 -44q-38 -91 -99 -91q-33 0 -54 21t-21 55q0 79 106 129.5t283 50.5q135 0 194.5 -45.5t59.5 -151.5q0 -17 -5.5 -149.5t-5.5 -249.5q0 -150 17.5 -235.5t52.5 -106.5zM498 1399h178q-82 -153 -176 -238t-211 -112 q70 94 122 182t87 168z" />
<glyph unicode="&#xe2;" horiz-adv-x="829" d="M555 492q-230 -92 -288 -142.5t-58 -120.5q0 -59 44 -96t116 -37q95 0 140.5 61.5t45.5 190.5v144zM586 -12q-12 32 -18.5 72t-8.5 87q-40 -83 -107 -127.5t-153 -44.5q-106 0 -182 64.5t-76 150.5q0 80 63 139t275 152q126 56 154 91t28 114q0 97 -41.5 141.5 t-130.5 44.5q-41 0 -73.5 -14t-51.5 -41q-8 -12 -22 -44q-38 -91 -99 -91q-33 0 -54 21t-21 55q0 79 106 129.5t283 50.5q135 0 194.5 -45.5t59.5 -151.5q0 -17 -5.5 -149.5t-5.5 -249.5q0 -150 17.5 -235.5t52.5 -106.5zM621 1049q-53 54 -102 115t-93 128 q-45 -67 -93.5 -128t-101.5 -115h-92q82 130 125.5 208t71.5 142h178q28 -64 71 -142t126 -208h-90z" />
<glyph unicode="&#xe3;" horiz-adv-x="829" d="M555 492q-230 -92 -288 -142.5t-58 -120.5q0 -59 44 -96t116 -37q95 0 140.5 61.5t45.5 190.5v144zM586 -12q-12 32 -18.5 72t-8.5 87q-40 -83 -107 -127.5t-153 -44.5q-106 0 -182 64.5t-76 150.5q0 80 63 139t275 152q126 56 154 91t28 114q0 97 -41.5 141.5 t-130.5 44.5q-41 0 -73.5 -14t-51.5 -41q-8 -12 -22 -44q-38 -91 -99 -91q-33 0 -54 21t-21 55q0 79 106 129.5t283 50.5q135 0 194.5 -45.5t59.5 -151.5q0 -17 -5.5 -149.5t-5.5 -249.5q0 -150 17.5 -235.5t52.5 -106.5zM629 1317h88q-24 -93 -75 -142t-124 -49 q-19 0 -34.5 2.5t-31.5 8.5l-79 26q-12 4 -26 6t-27 2q-36 0 -59 -14.5t-38 -48.5h-88q21 91 71.5 138.5t125.5 47.5q14 0 29 -2.5t32 -7.5l79 -27q17 -5 32 -7.5t28 -2.5q36 0 59.5 17t37.5 53z" />
<glyph unicode="&#xe4;" horiz-adv-x="829" d="M555 492q-230 -92 -288 -142.5t-58 -120.5q0 -59 44 -96t116 -37q95 0 140.5 61.5t45.5 190.5v144zM586 -12q-12 32 -18.5 72t-8.5 87q-40 -83 -107 -127.5t-153 -44.5q-106 0 -182 64.5t-76 150.5q0 80 63 139t275 152q126 56 154 91t28 114q0 97 -41.5 141.5 t-130.5 44.5q-41 0 -73.5 -14t-51.5 -41q-8 -12 -22 -44q-38 -91 -99 -91q-33 0 -54 21t-21 55q0 79 106 129.5t283 50.5q135 0 194.5 -45.5t59.5 -151.5q0 -17 -5.5 -149.5t-5.5 -249.5q0 -150 17.5 -235.5t52.5 -106.5zM606 1329l103 -123l-144 -119l-102 121zM285 1329 l102 -123l-143 -119l-101 121z" />
<glyph unicode="&#xe5;" horiz-adv-x="829" d="M436 1395q-60 0 -100.5 -41t-40.5 -101t41 -101.5t100 -41.5q60 0 102 41.5t42 101.5q0 59 -42 100.5t-102 41.5zM436 1501q103 0 175.5 -72.5t72.5 -175.5q0 -104 -71.5 -175.5t-176.5 -71.5q-104 0 -176 71.5t-72 175.5q0 105 72 176.5t176 71.5zM586 -12 q-12 32 -18.5 72t-8.5 87q-40 -83 -107 -127.5t-153 -44.5q-106 0 -182 64.5t-76 150.5q0 80 63 139t275 152q126 56 154 91t28 114q0 97 -41.5 141.5t-130.5 44.5q-41 0 -73.5 -14t-51.5 -41q-8 -12 -22 -44q-38 -91 -99 -91q-33 0 -54 21t-21 55q0 79 106 129.5t283 50.5 q135 0 194.5 -45.5t59.5 -151.5q0 -17 -5.5 -149.5t-5.5 -249.5q0 -150 17.5 -235.5t52.5 -106.5zM555 492q-230 -92 -288 -142.5t-58 -120.5q0 -59 44 -96t116 -37q95 0 140.5 61.5t45.5 190.5v144z" />
<glyph unicode="&#xe6;" horiz-adv-x="1337" d="M555 492q-230 -92 -288 -142.5t-58 -120.5q0 -59 44 -96t116 -37q95 0 140.5 61.5t45.5 190.5v144zM721 651h16q4 0 50.5 -2t89.5 -2h26q136 0 167.5 14.5t31.5 55.5q0 63 -49 108t-119 45q-83 0 -143 -61t-70 -158zM1257 223v-24q0 -81 -100.5 -152.5t-228.5 -71.5 q-119 0 -206.5 55t-129.5 154q-35 -98 -109 -153.5t-170 -55.5q-116 0 -194 63t-78 152q0 80 63 139t275 152q126 56 154 91t28 114q0 96 -41 140t-131 44q-42 0 -74.5 -13.5t-50.5 -39.5q-8 -12 -22 -44q-38 -91 -99 -91q-33 0 -54 21t-21 55q0 79 106 129.5t283 50.5 q92 0 153 -22.5t80 -63.5q51 42 118.5 64t145.5 22q141 0 229.5 -76t88.5 -194q0 -48 -54 -64t-311 -16q-77 0 -119 1t-79 3q-8 -27 -11.5 -55.5t-3.5 -61.5q0 -172 81.5 -271.5t219.5 -99.5q75 0 139.5 29.5t122.5 89.5z" />
<glyph unicode="&#xe7;" horiz-adv-x="834" d="M784 203v-4q0 -102 -82.5 -163t-218.5 -61q-182 0 -302 130t-120 333q0 220 136.5 360t351.5 140q57 0 105.5 -6t93.5 -19l-7 -215q-27 84 -78 126t-124 42q-138 0 -223 -114t-85 -301q0 -161 85 -262t219 -101q77 0 142.5 30t106.5 85zM397 0h72v-106h23q111 0 169 -45 t58 -132q0 -89 -63 -135.5t-185 -46.5q-133 0 -191.5 33.5t-64.5 114.5q60 -29 122.5 -42.5t133.5 -13.5q58 0 88.5 22.5t30.5 65.5q0 48 -33.5 71.5t-101.5 23.5q-16 0 -30 -1l-28 -2v193z" />
<glyph unicode="&#xe8;" horiz-adv-x="872" d="M256 651h18q4 0 49.5 -2t88.5 -2h26q136 0 167.5 14.5t31.5 55.5q0 62 -48.5 106.5t-119.5 44.5q-83 0 -142.5 -60.5t-70.5 -156.5zM793 223v-24q0 -82 -100 -153t-228 -71q-184 0 -294 129.5t-110 348.5q0 223 116 354t310 131q142 0 231 -76.5t89 -193.5q0 -48 -54 -64 t-311 -16q-76 0 -118.5 1t-79.5 3q-8 -27 -11.5 -55.5t-3.5 -61.5q0 -172 81.5 -271.5t219.5 -99.5q75 0 139.5 29.5t123.5 89.5zM225 1399h178q36 -83 88.5 -171.5t120.5 -178.5q-115 25 -210 111t-177 239z" />
<glyph unicode="&#xe9;" horiz-adv-x="872" d="M256 651h18q4 0 49.5 -2t88.5 -2h26q136 0 167.5 14.5t31.5 55.5q0 62 -48.5 106.5t-119.5 44.5q-83 0 -142.5 -60.5t-70.5 -156.5zM793 223v-24q0 -82 -100 -153t-228 -71q-184 0 -294 129.5t-110 348.5q0 223 116 354t310 131q142 0 231 -76.5t89 -193.5q0 -48 -54 -64 t-311 -16q-76 0 -118.5 1t-79.5 3q-8 -27 -11.5 -55.5t-3.5 -61.5q0 -172 81.5 -271.5t219.5 -99.5q75 0 139.5 29.5t123.5 89.5zM547 1399h178q-82 -153 -176 -238t-211 -112q70 94 122 182t87 168z" />
<glyph unicode="&#xea;" horiz-adv-x="872" d="M256 651h18q4 0 49.5 -2t88.5 -2h26q136 0 167.5 14.5t31.5 55.5q0 62 -48.5 106.5t-119.5 44.5q-83 0 -142.5 -60.5t-70.5 -156.5zM793 223v-24q0 -82 -100 -153t-228 -71q-184 0 -294 129.5t-110 348.5q0 223 116 354t310 131q142 0 231 -76.5t89 -193.5q0 -48 -54 -64 t-311 -16q-76 0 -118.5 1t-79.5 3q-8 -27 -11.5 -55.5t-3.5 -61.5q0 -172 81.5 -271.5t219.5 -99.5q75 0 139.5 29.5t123.5 89.5zM670 1049q-53 54 -102 115t-93 128q-45 -67 -93.5 -128t-101.5 -115h-92q82 130 125.5 208t71.5 142h178q28 -64 71 -142t126 -208h-90z" />
<glyph unicode="&#xeb;" horiz-adv-x="872" d="M256 651h18q4 0 49.5 -2t88.5 -2h26q136 0 167.5 14.5t31.5 55.5q0 62 -48.5 106.5t-119.5 44.5q-83 0 -142.5 -60.5t-70.5 -156.5zM793 223v-24q0 -82 -100 -153t-228 -71q-184 0 -294 129.5t-110 348.5q0 223 116 354t310 131q142 0 231 -76.5t89 -193.5q0 -48 -54 -64 t-311 -16q-76 0 -118.5 1t-79.5 3q-8 -27 -11.5 -55.5t-3.5 -61.5q0 -172 81.5 -271.5t219.5 -99.5q75 0 139.5 29.5t123.5 89.5zM655 1329l103 -123l-144 -119l-102 121zM334 1329l102 -123l-143 -119l-101 121z" />
<glyph unicode="&#xec;" horiz-adv-x="422" d="M94 0q24 18 33.5 69.5t9.5 190.5v197v114q0 204 -9.5 266.5t-32.5 77.5q58 2 107.5 7.5t92.5 14.5q-6 -47 -8 -174.5t-2 -389.5v-117q0 -134 9.5 -185.5t33.5 -70.5h-234zM-39 1399h178q36 -83 88.5 -171.5t120.5 -178.5q-115 25 -210 111t-177 239z" />
<glyph unicode="&#xed;" horiz-adv-x="422" d="M94 0q24 18 33.5 69.5t9.5 190.5v197v114q0 204 -9.5 266.5t-32.5 77.5q58 2 107.5 7.5t92.5 14.5q-6 -47 -8 -174.5t-2 -389.5v-117q0 -134 9.5 -185.5t33.5 -70.5h-234zM283 1399h178q-82 -153 -176 -238t-211 -112q70 94 122 182t87 168z" />
<glyph unicode="&#xee;" horiz-adv-x="422" d="M94 0q24 18 33.5 69.5t9.5 190.5v197v114q0 204 -9.5 266.5t-32.5 77.5q58 2 107.5 7.5t92.5 14.5q-6 -47 -8 -174.5t-2 -389.5v-117q0 -134 9.5 -185.5t33.5 -70.5h-234zM406 1049q-53 54 -102 115t-93 128q-45 -67 -93.5 -128t-101.5 -115h-92q82 130 125.5 208 t71.5 142h178q28 -64 71 -142t126 -208h-90z" />
<glyph unicode="&#xef;" horiz-adv-x="422" d="M94 0q24 18 33.5 69.5t9.5 190.5v197v114q0 204 -9.5 266.5t-32.5 77.5q58 2 107.5 7.5t92.5 14.5q-6 -47 -8 -174.5t-2 -389.5v-117q0 -134 9.5 -185.5t33.5 -70.5h-234zM391 1329l103 -123l-144 -119l-102 121zM70 1329l102 -123l-143 -119l-101 121z" />
<glyph unicode="&#xf0;" horiz-adv-x="995" d="M653 899q-29 65 -72 132.5t-102 144.5l-313 -132l-31 72l295 123q-31 39 -86.5 89t-132.5 108q87 -6 164.5 -44t156.5 -112l287 121l33 -68l-256 -108q166 -179 252 -360.5t86 -356.5q0 -245 -122.5 -389t-330.5 -144q-199 0 -309.5 122t-110.5 341q0 223 123.5 359.5 t321.5 136.5q40 0 77 -8.5t70 -26.5zM487 862q-126 0 -193 -97t-67 -282q0 -199 81 -314.5t218 -115.5q120 0 181 101t61 301q0 181 -78.5 294t-202.5 113z" />
<glyph unicode="&#xf1;" horiz-adv-x="938" d="M94 0q24 18 33.5 69.5t9.5 190.5v197v63q0 222 -9.5 290t-33.5 85l187 20q5 -22 7.5 -48t2.5 -54v-27q61 80 129.5 116t159.5 36q130 0 180.5 -86.5t50.5 -378.5v-209v-57q0 -107 9.5 -147t33.5 -60h-200q5 112 7.5 235t2.5 275v49q0 172 -38.5 218t-136.5 46 q-113 0 -158.5 -62.5t-45.5 -303.5v-197q0 -139 9.5 -190.5t33.5 -69.5h-234zM672 1317h88q-24 -93 -75 -142t-124 -49q-19 0 -34.5 2.5t-31.5 8.5l-79 26q-12 4 -26 6t-27 2q-36 0 -59 -14.5t-38 -48.5h-88q21 91 71.5 138.5t125.5 47.5q14 0 29 -2.5t32 -7.5l79 -27 q17 -5 32 -7.5t28 -2.5q36 0 59.5 17t37.5 53z" />
<glyph unicode="&#xf2;" horiz-adv-x="995" d="M487 862q-126 0 -193 -97t-67 -282q0 -199 81 -314.5t218 -115.5q120 0 181 101t61 301q0 181 -78.5 294t-202.5 113zM522 938q194 0 303 -114.5t109 -315.5q0 -245 -122.5 -389t-330.5 -144q-199 0 -309.5 122t-110.5 341q0 226 128 363t333 137zM248 1399h178 q36 -83 88.5 -171.5t120.5 -178.5q-115 25 -210 111t-177 239z" />
<glyph unicode="&#xf3;" horiz-adv-x="995" d="M487 862q-126 0 -193 -97t-67 -282q0 -199 81 -314.5t218 -115.5q120 0 181 101t61 301q0 181 -78.5 294t-202.5 113zM522 938q194 0 303 -114.5t109 -315.5q0 -245 -122.5 -389t-330.5 -144q-199 0 -309.5 122t-110.5 341q0 226 128 363t333 137zM570 1399h178 q-82 -153 -176 -238t-211 -112q70 94 122 182t87 168z" />
<glyph unicode="&#xf4;" horiz-adv-x="995" d="M487 862q-126 0 -193 -97t-67 -282q0 -199 81 -314.5t218 -115.5q120 0 181 101t61 301q0 181 -78.5 294t-202.5 113zM522 938q194 0 303 -114.5t109 -315.5q0 -245 -122.5 -389t-330.5 -144q-199 0 -309.5 122t-110.5 341q0 226 128 363t333 137zM693 1049 q-53 54 -102 115t-93 128q-45 -67 -93.5 -128t-101.5 -115h-92q82 130 125.5 208t71.5 142h178q28 -64 71 -142t126 -208h-90z" />
<glyph unicode="&#xf5;" horiz-adv-x="995" d="M487 862q-126 0 -193 -97t-67 -282q0 -199 81 -314.5t218 -115.5q120 0 181 101t61 301q0 181 -78.5 294t-202.5 113zM522 938q194 0 303 -114.5t109 -315.5q0 -245 -122.5 -389t-330.5 -144q-199 0 -309.5 122t-110.5 341q0 226 128 363t333 137zM701 1317h88 q-24 -93 -75 -142t-124 -49q-19 0 -34.5 2.5t-31.5 8.5l-79 26q-12 4 -26 6t-27 2q-36 0 -59 -14.5t-38 -48.5h-88q21 91 71.5 138.5t125.5 47.5q14 0 29 -2.5t32 -7.5l79 -27q17 -5 32 -7.5t28 -2.5q36 0 59.5 17t37.5 53z" />
<glyph unicode="&#xf6;" horiz-adv-x="995" d="M487 862q-126 0 -193 -97t-67 -282q0 -199 81 -314.5t218 -115.5q120 0 181 101t61 301q0 181 -78.5 294t-202.5 113zM522 938q194 0 303 -114.5t109 -315.5q0 -245 -122.5 -389t-330.5 -144q-199 0 -309.5 122t-110.5 341q0 226 128 363t333 137zM678 1329l103 -123 l-144 -119l-102 121zM357 1329l102 -123l-143 -119l-101 121z" />
<glyph unicode="&#xf7;" horiz-adv-x="1706" d="M854 365q47 0 81 -34t34 -81t-33.5 -81t-81.5 -34t-81.5 33.5t-33.5 81.5t34 81.5t81 33.5zM1452 670v-117h-1198v117h1198zM854 1085q48 0 81.5 -33.5t33.5 -80.5q0 -48 -33.5 -81.5t-81.5 -33.5q-49 0 -82 33.5t-33 81.5q0 47 34 80.5t81 33.5z" />
<glyph unicode="&#xf8;" horiz-adv-x="995" d="M104 -109h-96l164 209q-57 71 -84 151.5t-27 182.5q0 229 127 366.5t334 137.5q79 0 138 -16.5t112 -53.5l111 142h96l-150 -191q52 -64 78.5 -142t26.5 -169q0 -246 -122 -389.5t-331 -143.5q-74 0 -139.5 19.5t-112.5 54.5zM272 227l414 531q-33 51 -83.5 77.5 t-115.5 26.5q-126 0 -196 -95.5t-70 -270.5q0 -71 12.5 -137t38.5 -132zM313 160q47 -55 99 -81t114 -26q125 0 187.5 101t62.5 301q0 61 -11.5 120t-35.5 117z" />
<glyph unicode="&#xf9;" horiz-adv-x="958" d="M702 -12h-10q-5 0 -6.5 1.5t-1.5 8.5v8l-6 150q-47 -86 -119.5 -133.5t-155.5 -47.5q-80 0 -141 34.5t-94 96.5q-22 44 -31.5 108t-9.5 210v39q0 172 3 338q1 29 1 35q0 34 -9.5 51t-32.5 28l134 21q4 0 8 1t5 1q28 0 35.5 -12.5t7.5 -59.5l-5 -475v-12q0 -150 45 -214.5 t146 -64.5q113 0 160 78.5t47 290.5v238q0 102 -9.5 148.5t-31.5 59.5l200 23q-5 -78 -8.5 -228.5t-3.5 -328.5v-115q0 -139 10 -192t35 -74zM229 1399h178q36 -83 88.5 -171.5t120.5 -178.5q-115 25 -210 111t-177 239z" />
<glyph unicode="&#xfa;" horiz-adv-x="958" d="M702 -12h-10q-5 0 -6.5 1.5t-1.5 8.5v8l-6 150q-47 -86 -119.5 -133.5t-155.5 -47.5q-80 0 -141 34.5t-94 96.5q-22 44 -31.5 108t-9.5 210v39q0 172 3 338q1 29 1 35q0 34 -9.5 51t-32.5 28l134 21q4 0 8 1t5 1q28 0 35.5 -12.5t7.5 -59.5l-5 -475v-12q0 -150 45 -214.5 t146 -64.5q113 0 160 78.5t47 290.5v238q0 102 -9.5 148.5t-31.5 59.5l200 23q-5 -78 -8.5 -228.5t-3.5 -328.5v-115q0 -139 10 -192t35 -74zM551 1399h178q-82 -153 -176 -238t-211 -112q70 94 122 182t87 168z" />
<glyph unicode="&#xfb;" horiz-adv-x="958" d="M702 -12h-10q-5 0 -6.5 1.5t-1.5 8.5v8l-6 150q-47 -86 -119.5 -133.5t-155.5 -47.5q-80 0 -141 34.5t-94 96.5q-22 44 -31.5 108t-9.5 210v39q0 172 3 338q1 29 1 35q0 34 -9.5 51t-32.5 28l134 21q4 0 8 1t5 1q28 0 35.5 -12.5t7.5 -59.5l-5 -475v-12q0 -150 45 -214.5 t146 -64.5q113 0 160 78.5t47 290.5v238q0 102 -9.5 148.5t-31.5 59.5l200 23q-5 -78 -8.5 -228.5t-3.5 -328.5v-115q0 -139 10 -192t35 -74zM674 1049q-53 54 -102 115t-93 128q-45 -67 -93.5 -128t-101.5 -115h-92q82 130 125.5 208t71.5 142h178q28 -64 71 -142t126 -208 h-90z" />
<glyph unicode="&#xfc;" horiz-adv-x="958" d="M702 -12h-10q-5 0 -6.5 1.5t-1.5 8.5v8l-6 150q-47 -86 -119.5 -133.5t-155.5 -47.5q-80 0 -141 34.5t-94 96.5q-22 44 -31.5 108t-9.5 210v39q0 172 3 338q1 29 1 35q0 34 -9.5 51t-32.5 28l134 21q4 0 8 1t5 1q28 0 35.5 -12.5t7.5 -59.5l-5 -475v-12q0 -150 45 -214.5 t146 -64.5q113 0 160 78.5t47 290.5v238q0 102 -9.5 148.5t-31.5 59.5l200 23q-5 -78 -8.5 -228.5t-3.5 -328.5v-115q0 -139 10 -192t35 -74zM659 1329l103 -123l-144 -119l-102 121zM338 1329l102 -123l-143 -119l-101 121z" />
<glyph unicode="&#xfd;" horiz-adv-x="772" d="M408 139q93 251 147.5 442t54.5 259q0 21 -4.5 40t-13.5 35h213q-65 -75 -202 -439l-103 -269q-182 -462 -320 -633.5t-309 -171.5q-74 0 -125 30.5t-51 69.5q0 21 20 29t84 8q21 0 51 -1t39 -1q106 0 154 20t88 70q74 92 119 193.5t45 171.5q0 43 -50 234.5t-126 416.5 q-55 160 -80 209.5t-49 58.5l141 17h19q43 0 154 -413zM459 1399h178q-82 -153 -176 -238t-211 -112q70 94 122 182t87 168z" />
<glyph unicode="&#xfe;" horiz-adv-x="973" d="M274 393v-59q0 -170 39.5 -212t149.5 -42q141 0 215 87.5t74 254.5q0 175 -79.5 289t-199.5 114q-44 0 -91 -19.5t-71 -47.5q-20 -26 -28.5 -99.5t-8.5 -265.5zM94 -573q24 30 33.5 115t9.5 311v317v852q0 218 -9.5 291.5t-33.5 87.5l201 35q-6 -81 -9 -175t-3 -227 q0 -77 0.5 -124.5t1.5 -91.5q69 58 138 89t130 31q151 0 253.5 -130t102.5 -327q0 -222 -162 -364t-411 -142q-7 0 -36 3q-10 1 -15 2v-37q0 -3 -1 -17q-1 -55 -1 -106q0 -202 10 -281t35 -112h-234z" />
<glyph unicode="&#xff;" horiz-adv-x="772" d="M408 139q93 251 147.5 442t54.5 259q0 21 -4.5 40t-13.5 35h213q-65 -75 -202 -439l-103 -269q-182 -462 -320 -633.5t-309 -171.5q-74 0 -125 30.5t-51 69.5q0 21 20 29t84 8q21 0 51 -1t39 -1q106 0 154 20t88 70q74 92 119 193.5t45 171.5q0 43 -50 234.5t-126 416.5 q-55 160 -80 209.5t-49 58.5l141 17h19q43 0 154 -413zM567 1329l103 -123l-144 -119l-102 121zM246 1329l102 -123l-143 -119l-101 121z" />
<glyph unicode="&#x131;" horiz-adv-x="422" d="M94 0q24 18 33.5 69.5t9.5 190.5v197v114q0 204 -9.5 266.5t-32.5 77.5q58 2 107.5 7.5t92.5 14.5q-6 -47 -8 -174.5t-2 -389.5v-117q0 -134 9.5 -185.5t33.5 -70.5h-234z" />
<glyph unicode="&#x152;" horiz-adv-x="1933" d="M1090 950q0 162 -76.5 231.5t-247.5 69.5q-238 0 -360.5 -143.5t-122.5 -421.5q0 -297 124.5 -457.5t354.5 -160.5q182 0 255 73.5t73 284.5v524zM1866 217l-35 -205q-44 -8 -95.5 -12t-109.5 -4q-78 0 -197.5 2t-160.5 2q-107 0 -290.5 -12.5t-260.5 -12.5 q-317 0 -479 168t-162 496q0 336 176.5 517t505.5 181q37 0 182 -12t254 -12q105 0 268.5 3t220.5 3h9q33 -2 63 -2l17 -193q-24 63 -96.5 88t-276.5 25h-115q-10 -43 -14 -142.5t-4 -287.5v-68q25 -2 57 -3t102 -1q121 0 203 5.5t148 17.5q-57 -65 -149.5 -92t-307.5 -27 q-5 0 -23 1t-30 1v-133q0 -188 4 -288.5t14 -143.5h119q203 0 304.5 32.5t158.5 108.5z" />
<glyph unicode="&#x153;" horiz-adv-x="1554" d="M524 53q122 0 183 101t61 301q0 181 -78 294t-203 113q-126 0 -193 -97t-67 -282q0 -198 81 -314t216 -116zM938 651h18q4 0 49.5 -2t88.5 -2h26q136 0 167.5 14.5t31.5 55.5q0 63 -47.5 107t-118.5 44q-83 0 -144 -60.5t-71 -156.5zM1477 223v-24q0 -81 -101 -152.5 t-229 -71.5q-104 0 -183 41.5t-135 124.5q-62 -81 -151 -123.5t-197 -42.5q-199 0 -309.5 122t-110.5 341q0 226 128 363t333 137q110 0 190.5 -36t135.5 -109q58 70 141.5 107.5t181.5 37.5q142 0 231 -76.5t89 -193.5q0 -47 -54.5 -63.5t-312.5 -16.5q-109 0 -190 4h-6 q-8 -27 -11.5 -55.5t-3.5 -61.5q0 -172 81.5 -271.5t219.5 -99.5q75 0 139.5 29.5t123.5 89.5z" />
<glyph unicode="&#x178;" horiz-adv-x="995" d="M336 0q26 47 39.5 124t13.5 183q0 191 -52 361.5t-185 400.5q-50 86 -97 149t-84 95h70h96q63 0 95 -24.5t69 -100.5q58 -120 108 -249.5t107 -305.5l174 319l13 24q102 191 102 251q0 23 -9.5 44.5t-27.5 41.5h262l-242 -369q-94 -149 -137 -231q-47 -94 -67.5 -194.5 t-20.5 -309.5q0 -60 10 -111.5t31 -97.5h-268zM678 1726l103 -123l-144 -119l-102 121zM357 1726l102 -123l-143 -119l-101 121z" />
<glyph unicode="&#x2c6;" horiz-adv-x="1024" d="M707 1049q-53 54 -102 115t-93 128q-45 -67 -93.5 -128t-101.5 -115h-92q82 130 125.5 208t71.5 142h178q28 -64 71 -142t126 -208h-90z" />
<glyph unicode="&#x2dc;" horiz-adv-x="1024" d="M715 1317h88q-24 -93 -75 -142t-124 -49q-19 0 -34.5 2.5t-31.5 8.5l-79 26q-12 4 -26 6t-27 2q-36 0 -59 -14.5t-38 -48.5h-88q21 91 71.5 138.5t125.5 47.5q14 0 29 -2.5t32 -7.5l79 -27q17 -5 32 -7.5t28 -2.5q36 0 59.5 17t37.5 53z" />
<glyph unicode="&#x2000;" horiz-adv-x="938" />
<glyph unicode="&#x2001;" horiz-adv-x="1876" />
<glyph unicode="&#x2002;" horiz-adv-x="938" />
<glyph unicode="&#x2003;" horiz-adv-x="1876" />
<glyph unicode="&#x2004;" horiz-adv-x="625" />
<glyph unicode="&#x2005;" horiz-adv-x="469" />
<glyph unicode="&#x2006;" horiz-adv-x="312" />
<glyph unicode="&#x2007;" horiz-adv-x="312" />
<glyph unicode="&#x2008;" horiz-adv-x="234" />
<glyph unicode="&#x2009;" horiz-adv-x="375" />
<glyph unicode="&#x200a;" horiz-adv-x="104" />
<glyph unicode="&#x2010;" horiz-adv-x="678" d="M62 412l90 116h464l-88 -122h-432q-15 0 -22.5 1.5t-11.5 4.5z" />
<glyph unicode="&#x2011;" horiz-adv-x="678" d="M62 412l90 116h464l-88 -122h-432q-15 0 -22.5 1.5t-11.5 4.5z" />
<glyph unicode="&#x2012;" horiz-adv-x="678" d="M62 412l90 116h464l-88 -122h-432q-15 0 -22.5 1.5t-11.5 4.5z" />
<glyph unicode="&#x2013;" horiz-adv-x="1024" d="M-39 418l78 98h1024l-78 -98h-1024z" />
<glyph unicode="&#x2014;" horiz-adv-x="2048" d="M2087 516l-78 -98h-2048l78 98h2048z" />
<glyph unicode="&#x2018;" horiz-adv-x="537" d="M242 948q-37 47 -54.5 87.5t-17.5 80.5q0 65 41.5 123t120.5 102q-13 -26 -19 -52t-6 -52q0 -38 18 -79t58 -95z" />
<glyph unicode="&#x2019;" horiz-adv-x="537" d="M305 1337q37 -46 54.5 -87t17.5 -81q0 -65 -41.5 -122.5t-120.5 -102.5q13 29 20 54.5t7 50.5q0 37 -18 77.5t-60 96.5z" />
<glyph unicode="&#x201a;" horiz-adv-x="537" d="M301 209q37 -47 54.5 -87.5t17.5 -80.5q0 -64 -42 -122t-122 -103q13 28 20 54t7 50q0 38 -18 79.5t-58 94.5z" />
<glyph unicode="&#x201c;" horiz-adv-x="840" d="M545 948q-37 47 -54.5 87.5t-17.5 80.5q0 64 42 122t122 103q-14 -28 -20.5 -54t-6.5 -50q0 -38 18 -79t58 -95zM242 948q-37 47 -54.5 87.5t-17.5 80.5q0 65 41.5 123t120.5 102q-13 -26 -19 -52t-6 -52q0 -38 18 -79t58 -95z" />
<glyph unicode="&#x201d;" horiz-adv-x="840" d="M608 1337q38 -48 56 -88.5t18 -79.5q0 -64 -42 -122t-122 -103q14 29 20.5 54.5t6.5 50.5q0 37 -18 77.5t-60 96.5zM305 1337q37 -46 54.5 -87t17.5 -81q0 -65 -41.5 -122.5t-120.5 -102.5q13 29 20 54.5t7 50.5q0 37 -18 77.5t-60 96.5z" />
<glyph unicode="&#x201e;" horiz-adv-x="840" d="M604 209q37 -47 54.5 -87.5t17.5 -80.5q0 -64 -42 -122t-122 -103q13 28 20 54t7 50q0 38 -18 79.5t-58 94.5zM301 209q37 -47 54.5 -87.5t17.5 -80.5q0 -64 -42 -122t-122 -103q13 28 20 54t7 50q0 38 -18 79.5t-58 94.5z" />
<glyph unicode="&#x2022;" horiz-adv-x="1208" d="M307 762q0 123 87 209t210 86q122 0 208.5 -86.5t86.5 -208.5t-87.5 -209.5t-209.5 -87.5q-123 0 -209 87t-86 210z" />
<glyph unicode="&#x2026;" horiz-adv-x="2048" d="M320 -25l-113 134l166 100l104 -131zM1002 -25l-113 134l166 100l104 -131zM1686 -25l-113 134l166 100l104 -131z" />
<glyph unicode="&#x202f;" horiz-adv-x="375" />
<glyph unicode="&#x2039;" horiz-adv-x="569" d="M508 842q-6 -42 -21 -77.5t-38 -64.5l-203 -235l203 -236q23 -26 37.5 -61t21.5 -80l-447 377z" />
<glyph unicode="&#x203a;" horiz-adv-x="569" d="M508 465l-447 -377q7 44 21 79t37 62l203 236l-203 235q-23 26 -37 60.5t-20 80.5z" />
<glyph unicode="&#x205f;" horiz-adv-x="469" />
<glyph unicode="&#x2122;" horiz-adv-x="1706" d="M948 1456l160 -405l149 405h132v-534h-82v458l-172 -458h-54l-180 458v-458h-82v534h129zM694 1456v-67h-172v-467h-94v467h-174v67h440z" />
<glyph unicode="&#xe000;" horiz-adv-x="1050" d="M0 1050h1050v-1050h-1050v1050z" />
<glyph unicode="&#xf001;" horiz-adv-x="905" d="M285 457v-197q0 -139 9.5 -190.5t33.5 -69.5h-234q24 18 33.5 69.5t9.5 190.5v197v387q-20 0 -40 1.5t-41 4.5l-1 65h82v39v60q0 152 7 212t24 91q30 56 112.5 88.5t196.5 32.5q68 0 104.5 -22t36.5 -62q0 -27 -21 -44.5t-54 -17.5q-38 0 -87.5 37t-70.5 37 q-54 0 -78 -79.5t-24 -260.5q0 -44 0.5 -67.5t1.5 -42.5l157 -1q0 -2 1 -8t1 -8q0 -29 -27 -40t-132 -15v-387zM649 1055l-86 139l152 96l86 -141zM578 0q23 18 33 69.5t10 190.5v197v114q0 204 -9.5 266.5t-33.5 77.5q58 2 107.5 7.5t92.5 15.5q-5 -47 -7.5 -175.5 t-2.5 -389.5v-117q0 -134 9.5 -185.5t33.5 -70.5h-233z" />
<glyph unicode="&#xfb01;" horiz-adv-x="905" d="M285 457v-197q0 -139 9.5 -190.5t33.5 -69.5h-234q24 18 33.5 69.5t9.5 190.5v197v387q-20 0 -40 1.5t-41 4.5l-1 65h82v39v60q0 152 7 212t24 91q30 56 112.5 88.5t196.5 32.5q68 0 104.5 -22t36.5 -62q0 -27 -21 -44.5t-54 -17.5q-38 0 -87.5 37t-70.5 37 q-54 0 -78 -79.5t-24 -260.5q0 -44 0.5 -67.5t1.5 -42.5l157 -1q0 -2 1 -8t1 -8q0 -29 -27 -40t-132 -15v-387zM649 1055l-86 139l152 96l86 -141zM578 0q23 18 33 69.5t10 190.5v197v114q0 204 -9.5 266.5t-33.5 77.5q58 2 107.5 7.5t92.5 15.5q-5 -47 -7.5 -175.5 t-2.5 -389.5v-117q0 -134 9.5 -185.5t33.5 -70.5h-233z" />
<glyph unicode="&#xf002;" horiz-adv-x="905" d="M285 457v-197q0 -139 9.5 -190.5t33.5 -69.5h-234q24 18 33.5 69.5t9.5 190.5v197v387q-20 0 -40 1.5t-41 4.5l-1 65h82v39v105q0 132 10.5 189.5t34.5 90.5q33 46 113 72.5t188 26.5q40 0 72.5 -8t58.5 -23l164 28q-5 -57 -7.5 -284.5t-2.5 -726.5v-162q0 -140 9.5 -192 t33.5 -70h-233q24 16 34.5 82t10.5 235q0 46 -1 175.5t-1 214.5v315q0 152 -2 209.5t-7 93.5q-11 -18 -26 -25.5t-39 -7.5q-43 0 -92 37t-70 37q-54 0 -78 -79.5t-24 -260.5q0 -44 0.5 -67.5t1.5 -42.5l157 -1q0 -2 1 -8t1 -8q0 -29 -27 -40t-132 -15v-387z" />
<glyph unicode="&#xfb02;" horiz-adv-x="905" d="M285 457v-197q0 -139 9.5 -190.5t33.5 -69.5h-234q24 18 33.5 69.5t9.5 190.5v197v387q-20 0 -40 1.5t-41 4.5l-1 65h82v39v105q0 132 10.5 189.5t34.5 90.5q33 46 113 72.5t188 26.5q40 0 72.5 -8t58.5 -23l164 28q-5 -57 -7.5 -284.5t-2.5 -726.5v-162q0 -140 9.5 -192 t33.5 -70h-233q24 16 34.5 82t10.5 235q0 46 -1 175.5t-1 214.5v315q0 152 -2 209.5t-7 93.5q-11 -18 -26 -25.5t-39 -7.5q-43 0 -92 37t-70 37q-54 0 -78 -79.5t-24 -260.5q0 -44 0.5 -67.5t1.5 -42.5l157 -1q0 -2 1 -8t1 -8q0 -29 -27 -40t-132 -15v-387z" />
<glyph unicode="&#xfb03;" horiz-adv-x="1388" d="M1132 1055l-88 139l153 96l86 -141zM1060 0q24 18 33.5 69.5t9.5 190.5v197v114q0 204 -9.5 266.5t-32.5 77.5q58 2 107.5 7.5t92.5 14.5q-6 -47 -8 -174.5t-2 -389.5v-117q0 -134 9.5 -185.5t33.5 -70.5h-234zM768 457v-197q0 -139 9.5 -190.5t33.5 -69.5h-234 q24 18 33.5 69.5t9.5 190.5v197v387q-20 0 -40 1.5t-41 4.5l-1 65h82v39v60q0 152 7 212t24 91q30 56 112.5 88.5t196.5 32.5q69 0 106.5 -22t37.5 -62q0 -26 -22.5 -44t-55.5 -18q-38 0 -87.5 37t-70.5 37q-54 0 -78 -79.5t-24 -260.5q0 -44 0.5 -67.5t1.5 -42.5l157 -1 q0 -2 1 -8t1 -8q0 -29 -27 -40t-132 -15v-387zM285 457v-197q0 -139 9.5 -190.5t33.5 -69.5h-234q24 18 33.5 69.5t9.5 190.5v197v387q-20 0 -40 1.5t-41 4.5l-1 65h82v39v60q0 152 7 212t24 91q30 56 112.5 88.5t196.5 32.5q69 0 106.5 -22t37.5 -62q0 -26 -22.5 -44 t-55.5 -18q-38 0 -87.5 37t-70.5 37q-54 0 -78 -79.5t-24 -260.5q0 -44 0.5 -67.5t1.5 -42.5l157 -1q0 -2 1 -8t1 -8q0 -29 -27 -40t-132 -15v-387z" />
<glyph unicode="&#xfb04;" horiz-adv-x="1388" d="M1060 0q25 16 35 82.5t10 236.5q0 47 -1 176t-1 212v315q0 218 -9.5 291.5t-33.5 87.5l201 34q-6 -58 -8 -283.5t-2 -727.5v-162q0 -140 9.5 -192t33.5 -70h-234zM768 457v-197q0 -139 9.5 -190.5t33.5 -69.5h-234q24 18 33.5 69.5t9.5 190.5v197v387q-20 0 -40 1.5 t-41 4.5l-1 65h82v39v60q0 152 7 212t24 91q30 56 112.5 88.5t196.5 32.5q69 0 106.5 -22t37.5 -62q0 -26 -22.5 -44t-55.5 -18q-38 0 -87.5 37t-70.5 37q-54 0 -78 -79.5t-24 -260.5q0 -44 0.5 -67.5t1.5 -42.5l157 -1q0 -2 1 -8t1 -8q0 -29 -27 -40t-132 -15v-387z M285 457v-197q0 -139 9.5 -190.5t33.5 -69.5h-234q24 18 33.5 69.5t9.5 190.5v197v387q-20 0 -40 1.5t-41 4.5l-1 65h82v39v60q0 152 7 212t24 91q30 56 112.5 88.5t196.5 32.5q69 0 106.5 -22t37.5 -62q0 -26 -22.5 -44t-55.5 -18q-38 0 -87.5 37t-70.5 37q-54 0 -78 -79.5 t-24 -260.5q0 -44 0.5 -67.5t1.5 -42.5l157 -1q0 -2 1 -8t1 -8q0 -29 -27 -40t-132 -15v-387z" />
</font>
</defs>
</svg>
